<svg width="52" height="16" viewBox="0 0 52 16" fill="none" xmlns="http://www.w3.org/2000/svg">
<g id="Group">
<path id="Vector" d="M43.3333 0H8.66667C3.8802 0 0 3.58172 0 8C0 12.4183 3.8802 16 8.66667 16H43.3333C48.1198 16 52 12.4183 52 8C52 3.58172 48.1198 0 43.3333 0Z" fill="white"/>
<g id="Group_2">
<path id="Vector_2" fill-rule="evenodd" clip-rule="evenodd" d="M43.4232 13.7892C40.0105 13.7892 37.2344 11.2115 37.2344 8.04241C37.2344 4.87335 40.0105 2.29565 43.4232 2.29565C46.836 2.29565 49.6121 4.87335 49.6121 8.04241C49.6121 11.2115 46.836 13.7892 43.4232 13.7892Z" fill="#7C47E1"/>
<path id="Vector_3" fill-rule="evenodd" clip-rule="evenodd" d="M43.4233 11.9622C41.0916 11.9622 39.2024 10.207 39.2024 8.04239C39.2024 5.87781 41.0927 4.12256 43.4233 4.12256C45.754 4.12256 47.6443 5.87781 47.6443 8.04239C47.6443 10.207 45.754 11.9622 43.4233 11.9622Z" fill="#44CB86"/>
</g>
<path id="Vector_4" fill-rule="evenodd" clip-rule="evenodd" d="M8.76172 11.9396C6.44741 11.9396 4.5653 10.1909 4.5653 8.04237C4.5653 5.89382 6.44741 4.14517 8.76172 4.14517C11.076 4.14517 12.9581 5.89382 12.9581 8.04237C12.9581 10.1909 11.075 11.9396 8.76172 11.9396ZM14.9445 8.04237C14.9445 4.87613 12.1714 2.30127 8.76172 2.30127C5.35207 2.30127 2.57898 4.87708 2.57898 8.04237C2.57898 11.2077 5.35207 13.7835 8.76172 13.7835C10.3802 13.7835 11.8556 13.2025 12.9581 12.2536V12.861C12.9581 13.3704 13.4026 13.7825 13.9513 13.7825C14.5 13.7825 14.9445 13.3694 14.9445 12.861V8.22629C14.9445 8.20837 14.9445 8.19045 14.9424 8.17441C14.9424 8.13009 14.9445 8.08576 14.9445 8.04237Z" fill="#7C47E1"/>
<path id="Vector_5" fill-rule="evenodd" clip-rule="evenodd" d="M22.4658 13.8241C19.0326 13.8241 16.2401 11.2303 16.2401 8.0424C16.2401 4.85447 19.0336 2.26074 22.4658 2.26074C24.0056 2.26074 25.4831 2.78703 26.6274 3.74153C27.0372 4.0839 27.0709 4.67055 26.7031 5.05159C26.3342 5.43264 25.7027 5.46376 25.292 5.12139C24.5154 4.47343 23.511 4.11596 22.4658 4.11596C20.1341 4.11596 18.2377 5.87687 18.2377 8.0424C18.2377 10.2079 20.1341 11.9688 22.4658 11.9688C23.5121 11.9688 24.5165 11.6114 25.293 10.9625C25.7027 10.6201 26.3342 10.6503 26.7041 11.0313C27.0729 11.4124 27.0402 11.9981 26.6305 12.3414C25.4861 13.2978 24.0076 13.8241 22.4668 13.8241H22.4658Z" fill="#7C47E1"/>
<path id="Vector_6" fill-rule="evenodd" clip-rule="evenodd" d="M37.3192 12.131L31.9611 7.95656L37.3192 3.86884C37.7412 3.54439 37.7995 2.96246 37.45 2.57104C37.0996 2.17868 36.4742 2.12492 36.0522 2.45031L30.2476 6.92001V3.15958C30.2476 2.65026 29.8031 2.2381 29.2544 2.2381C28.7057 2.2381 28.2612 2.65121 28.2612 3.15958V12.8403C28.2612 13.3496 28.7057 13.7627 29.2544 13.7627C29.8031 13.7627 30.2476 13.3496 30.2476 12.8403V9.07988L36.0522 13.5496C36.2382 13.692 36.462 13.7618 36.6857 13.7618C36.9708 13.7618 37.2538 13.6486 37.45 13.4279C37.8005 13.0356 37.7412 12.4546 37.3192 12.1301V12.131Z" fill="#7C47E1"/>
</g>
</svg>
