<svg width="80" height="18" viewBox="0 0 80 18" fill="none" xmlns="http://www.w3.org/2000/svg">
<g clip-path="url(#clip0_12022_1374)">
<path d="M33.4417 2.69287H36.8645L42.32 15.4823H38.512L37.5786 13.2145H32.6362L31.7212 15.4823H27.9862L33.4417 2.69287ZM36.5539 10.4758L35.1257 6.86497L33.6792 10.4758H36.5539Z" fill="white"/>
<path d="M41.4764 9.16896V9.13279C41.4764 5.43145 44.3511 2.52979 48.2307 2.52979C50.8481 2.52979 52.5321 3.61775 53.6679 5.17796L50.9958 7.22853C50.2634 6.32168 49.4214 5.74077 48.1942 5.74077C46.4005 5.74077 45.1368 7.24662 45.1368 9.09654V9.13279C45.1368 11.037 46.4005 12.5248 48.1942 12.5248C49.531 12.5248 50.3182 11.9076 51.0871 10.9827L53.7593 12.8688C52.5504 14.5195 50.9212 15.7357 48.0845 15.7357C44.4227 15.7357 41.4764 12.9593 41.4764 9.16896Z" fill="white"/>
<path d="M54.8738 2.78345H58.4246V7.93634L62.8371 2.78345H67.0471L62.196 8.24416L67.2115 15.4823H62.9467L59.7249 10.7655L58.4246 12.199V15.4823H54.8738V2.78345Z" fill="white"/>
<path d="M66.1594 9.16896V9.13279C66.1594 5.48577 69.1255 2.52979 73.0797 2.52979C77.0339 2.52979 79.9634 5.45103 79.9634 9.09654V9.13279C79.9634 12.7798 76.9973 15.7357 73.0431 15.7357C69.0889 15.7357 66.1594 12.8145 66.1594 9.16896ZM76.338 9.16896V9.13279C76.338 7.30098 75.0012 5.70452 73.0431 5.70452C71.085 5.70452 69.803 7.26473 69.803 9.09654V9.13279C69.803 10.9646 71.1399 12.561 73.0797 12.561C75.0195 12.561 76.338 11.0008 76.338 9.16896Z" fill="white"/>
<path d="M24.0424 6.53613V12.0904C24.0424 12.5174 23.849 12.8856 23.4562 13.1406C18.5488 16.3274 14.8336 17.6658 13.5333 18.0385C11.7412 18.553 10.7911 18.4987 10.6358 18.4882C7.36222 18.2543 1.84888 13.7879 1.84888 13.7879C1.84888 13.7879 6.34817 14.8773 16.743 9.97338C18.6919 9.05446 20.8677 8.06158 23.3968 6.89973C23.3968 6.89973 23.9495 6.66285 24.0424 6.53761V6.53613Z" fill="url(#paint0_linear_12022_1374)"/>
<path d="M23.7835 6.34744C23.8125 6.3233 23.849 6.29158 23.8657 6.27045C23.8886 6.24178 23.9084 6.21313 23.9206 6.17843C23.954 6.08488 23.9434 5.9687 23.8901 5.88269C23.7942 5.72576 23.6328 5.62161 23.4562 5.50694C18.5488 2.32013 14.8337 0.98174 13.5333 0.609041C11.7412 0.0945044 10.7911 0.148828 10.6358 0.15939C7.36222 0.39327 1.84888 4.85961 1.84888 4.85961C1.84888 4.85961 6.34817 3.77022 16.743 8.67416C17.078 8.8326 17.419 8.99249 17.7677 9.15395L23.447 6.54357C23.447 6.54357 23.7333 6.38365 23.7835 6.34442V6.34744Z" fill="url(#paint1_linear_12022_1374)"/>
<path d="M7.11857 9.31849C7.12466 8.134 7.27386 6.94801 7.54946 5.77559L7.58602 5.62919C5.53963 5.15238 4.0292 5.05127 3.12325 5.05127C2.37565 5.05127 1.97825 5.11919 1.84274 5.14786C1.59912 5.20067 1.42708 5.39384 1.30375 5.55529C0.571374 6.51797 0.152649 7.88956 0.152649 9.31849C0.152649 10.7474 0.571374 12.1205 1.30375 13.0817C1.42708 13.2431 1.59912 13.4347 1.84274 13.489C1.97825 13.5177 2.37565 13.5856 3.12325 13.5856C4.0292 13.5856 5.53811 13.4845 7.58602 13.0077L7.54946 12.8614C7.27386 11.689 7.12466 10.503 7.11857 9.31849Z" fill="url(#paint2_linear_12022_1374)"/>
</g>
<defs>
<linearGradient id="paint0_linear_12022_1374" x1="13.375" y1="11.2877" x2="15.8119" y2="17.789" gradientUnits="userSpaceOnUse">
<stop stop-color="#B99AFF"/>
<stop offset="1" stop-color="#5427FF"/>
</linearGradient>
<linearGradient id="paint1_linear_12022_1374" x1="10.8703" y1="1.35897" x2="15.261" y2="10.3292" gradientUnits="userSpaceOnUse">
<stop stop-color="#B99AFF"/>
<stop offset="1" stop-color="#5427FF"/>
</linearGradient>
<linearGradient id="paint2_linear_12022_1374" x1="0.0460664" y1="9.29884" x2="8.1311" y2="9.35415" gradientUnits="userSpaceOnUse">
<stop stop-color="#A890FF"/>
<stop offset="1" stop-color="#431DFF"/>
</linearGradient>
<clipPath id="clip0_12022_1374">
<rect width="80" height="18" fill="white"/>
</clipPath>
</defs>
</svg>
