<svg width="36" height="12" viewBox="0 0 36 12" fill="none" xmlns="http://www.w3.org/2000/svg">
<g clip-path="url(#clip0_2078_12773)">
<path d="M30 0H6C2.68629 0 0 2.68629 0 6C0 9.31371 2.68629 12 6 12H30C33.3137 12 36 9.31371 36 6C36 2.68629 33.3137 0 30 0Z" fill="#7C47E1"/>
<path fill-rule="evenodd" clip-rule="evenodd" d="M30.0619 10.3418C27.6993 10.3418 25.7773 8.40855 25.7773 6.03175C25.7773 3.65495 27.6993 1.72168 30.0619 1.72168C32.4246 1.72168 34.3466 3.65495 34.3466 6.03175C34.3466 8.40855 32.4246 10.3418 30.0619 10.3418Z" fill="white"/>
<path fill-rule="evenodd" clip-rule="evenodd" d="M30.0628 8.97154C28.4486 8.97154 27.1406 7.65511 27.1406 6.03167C27.1406 4.40823 28.4493 3.0918 30.0628 3.0918C31.6763 3.0918 32.985 4.40823 32.985 6.03167C32.985 7.65511 31.6763 8.97154 30.0628 8.97154Z" fill="#44CB86"/>
<path fill-rule="evenodd" clip-rule="evenodd" d="M6.06551 8.95431C4.4633 8.95431 3.1603 7.64282 3.1603 6.03141C3.1603 4.42 4.4633 3.10852 6.06551 3.10852C7.66773 3.10852 8.97072 4.42 8.97072 6.03141C8.97072 7.64282 7.66702 8.95431 6.06551 8.95431ZM10.3459 6.03141C10.3459 3.65673 8.42604 1.72559 6.06551 1.72559C3.70499 1.72559 1.78516 3.65744 1.78516 6.03141C1.78516 8.40538 3.70499 10.3372 6.06551 10.3372C7.186 10.3372 8.20746 9.90149 8.97072 9.18987V9.64542C8.97072 10.0274 9.27843 10.3365 9.6583 10.3365C10.0382 10.3365 10.3459 10.0267 10.3459 9.64542V6.16935C10.3459 6.15591 10.3459 6.14247 10.3445 6.13045C10.3445 6.0972 10.3459 6.06395 10.3459 6.03141Z" fill="white"/>
<path fill-rule="evenodd" clip-rule="evenodd" d="M15.5523 10.3678C13.1755 10.3678 11.2422 8.4225 11.2422 6.03155C11.2422 3.64061 13.1762 1.69531 15.5523 1.69531C16.6183 1.69531 17.6411 2.09003 18.4334 2.8059C18.7171 3.06268 18.7404 3.50267 18.4858 3.78845C18.2304 4.07423 17.7932 4.09758 17.5089 3.8408C16.9713 3.35483 16.2759 3.08673 15.5523 3.08673C13.938 3.08673 12.6251 4.40741 12.6251 6.03155C12.6251 7.6557 13.938 8.97638 15.5523 8.97638C16.2766 8.97638 16.972 8.70828 17.5096 8.2216C17.7932 7.96483 18.2304 7.98746 18.4865 8.27324C18.7418 8.55903 18.7192 8.99831 18.4355 9.2558C17.6433 9.97308 16.6197 10.3678 15.553 10.3678H15.5523Z" fill="white"/>
<path fill-rule="evenodd" clip-rule="evenodd" d="M25.8373 9.09786L22.1278 5.96699L25.8373 2.90121C26.1295 2.65787 26.1698 2.22141 25.9279 1.92785C25.6852 1.63358 25.2523 1.59326 24.9602 1.83731L20.9416 5.18958V2.36926C20.9416 1.98727 20.6338 1.67815 20.254 1.67815C19.8741 1.67815 19.5664 1.98798 19.5664 2.36926V9.62981C19.5664 10.0118 19.8741 10.3216 20.254 10.3216C20.6338 10.3216 20.9416 10.0118 20.9416 9.62981V6.80948L24.9602 10.1618C25.0889 10.2686 25.2438 10.3209 25.3988 10.3209C25.5961 10.3209 25.7921 10.236 25.9279 10.0705C26.1705 9.77624 26.1295 9.34049 25.8373 9.09715V9.09786Z" fill="white"/>
</g>
<defs>
<clipPath id="clip0_2078_12773">
<rect width="36" height="12" fill="white"/>
</clipPath>
</defs>
</svg>
