<svg width="335" height="232" viewBox="0 0 335 232" fill="none" xmlns="http://www.w3.org/2000/svg">
<path fill-rule="evenodd" clip-rule="evenodd" d="M0 10C0 4.47715 4.47715 0 10 0H325C330.523 0 335 4.47715 335 10V24.0411C334.655 24.0139 334.306 24 333.953 24C327.015 24 321.391 29.3726 321.391 36C321.391 42.6274 327.015 48 333.953 48C334.306 48 334.655 47.9861 335 47.9589V64.0411C334.655 64.0139 334.306 64 333.953 64C327.015 64 321.391 69.3726 321.391 76C321.391 82.6274 327.015 88 333.953 88C334.306 88 334.655 87.9861 335 87.9589V104.041C334.655 104.014 334.306 104 333.953 104C327.015 104 321.391 109.373 321.391 116C321.391 122.627 327.015 128 333.953 128C334.306 128 334.655 127.986 335 127.959V144.041C334.655 144.014 334.306 144 333.953 144C327.015 144 321.391 149.373 321.391 156C321.391 162.627 327.015 168 333.953 168C334.306 168 334.655 167.986 335 167.959V184.041C334.655 184.014 334.306 184 333.953 184C327.015 184 321.391 189.373 321.391 196C321.391 202.627 327.015 208 333.953 208C334.306 208 334.655 207.986 335 207.959V222C335 227.523 330.523 232 325 232H9.99999C4.47714 232 0 227.523 0 222V207.959C0.345141 207.986 0.694239 208 1.04673 208C7.9848 208 13.6092 202.627 13.6092 196C13.6092 189.373 7.9848 184 1.04673 184C0.694239 184 0.345141 184.014 0 184.041V167.959C0.345141 167.986 0.694239 168 1.04673 168C7.9848 168 13.6092 162.627 13.6092 156C13.6092 149.373 7.9848 144 1.04673 144C0.694239 144 0.345141 144.014 0 144.041V127.959C0.345141 127.986 0.694239 128 1.04673 128C7.9848 128 13.6092 122.627 13.6092 116C13.6092 109.373 7.9848 104 1.04673 104C0.694239 104 0.345141 104.014 0 104.041V87.9589C0.345141 87.9861 0.694239 88 1.04673 88C7.9848 88 13.6092 82.6274 13.6092 76C13.6092 69.3726 7.9848 64 1.04673 64C0.694239 64 0.345141 64.0139 0 64.0411V47.9589C0.345141 47.9861 0.694239 48 1.04673 48C7.9848 48 13.6092 42.6274 13.6092 36C13.6092 29.3726 7.9848 24 1.04673 24C0.694239 24 0.345141 24.0139 0 24.0411V10Z" fill="url(#paint0_linear_919_4788)"/>
<rect width="5.45572" height="11.6961" transform="matrix(0.124645 0.992201 -0.994678 0.103032 308.634 197.069)" fill="url(#paint1_linear_919_4788)"/>
<g filter="url(#filter0_f_919_4788)">
<rect width="5.98853" height="13.6048" transform="matrix(0.990952 -0.134215 0.162089 0.986776 38 174.264)" fill="url(#paint2_linear_919_4788)"/>
</g>
<rect width="5.62108" height="11.394" transform="matrix(0.587401 -0.809296 0.858071 0.51353 40 96.2852)" fill="url(#paint3_linear_919_4788)"/>
<rect width="6.01682" height="5.9075" rx="1" transform="matrix(-0.80052 0.599306 -0.672209 -0.740361 116.583 55.0635)" fill="url(#paint4_linear_919_4788)"/>
<rect width="5.96241" height="5.96241" rx="1" transform="matrix(0.740325 0.672249 -0.740325 0.672249 298.364 65.3994)" fill="url(#paint5_linear_919_4788)"/>
<defs>
<filter id="filter0_f_919_4788" x="36" y="171.46" width="12.1396" height="18.2285" filterUnits="userSpaceOnUse" color-interpolation-filters="sRGB">
<feFlood flood-opacity="0" result="BackgroundImageFix"/>
<feBlend mode="normal" in="SourceGraphic" in2="BackgroundImageFix" result="shape"/>
<feGaussianBlur stdDeviation="1" result="effect1_foregroundBlur_919_4788"/>
</filter>
<linearGradient id="paint0_linear_919_4788" x1="575.781" y1="17" x2="569.343" y2="440.944" gradientUnits="userSpaceOnUse">
<stop stop-color="#7C47E1"/>
<stop offset="1" stop-color="#060425"/>
</linearGradient>
<linearGradient id="paint1_linear_919_4788" x1="7.87127" y1="29.2803" x2="30.5585" y2="3.1319" gradientUnits="userSpaceOnUse">
<stop stop-color="#FFC584"/>
<stop offset="1" stop-color="#FF5C8C"/>
</linearGradient>
<linearGradient id="paint2_linear_919_4788" x1="8.63999" y1="34.0585" x2="35.2022" y2="5.16863" gradientUnits="userSpaceOnUse">
<stop stop-color="#AD00FF"/>
<stop offset="1" stop-color="#4AD4FF"/>
</linearGradient>
<linearGradient id="paint3_linear_919_4788" x1="8.10984" y1="28.524" x2="30.0036" y2="1.83593" gradientUnits="userSpaceOnUse">
<stop stop-color="#FFC584"/>
<stop offset="1" stop-color="#FF5C8C"/>
</linearGradient>
<linearGradient id="paint4_linear_919_4788" x1="13.7495" y1="38.8701" x2="30.1271" y2="1.2635" gradientUnits="userSpaceOnUse">
<stop stop-color="#AD00FF"/>
<stop offset="1" stop-color="#4AD4FF"/>
</linearGradient>
<linearGradient id="paint5_linear_919_4788" x1="8.6023" y1="14.9264" x2="16.7273" y2="-5.14968" gradientUnits="userSpaceOnUse">
<stop stop-color="#5FDB90"/>
<stop offset="1" stop-color="#4AD4FF"/>
</linearGradient>
</defs>
</svg>
