<svg width="16" height="16" viewBox="0 0 16 16" fill="none" xmlns="http://www.w3.org/2000/svg">
<path d="M2.41089 13.8933C2.41089 13.8933 2.25307 13.8591 2.14759 13.7533C2.02378 13.6291 1.98093 13.48 2.00759 13.3267L2.60759 9.28C2.62093 9.17333 2.67426 9.07333 2.74759 9L9.32759 2.48C9.96759 1.84 11.0143 1.84 11.6609 2.48L13.5143 4.32C13.8276 4.63333 14.0009 5.04 14.0009 5.48C14.0009 5.92 13.8276 6.33333 13.5143 6.64L6.96759 13.1267C6.89426 13.2 6.79426 13.2467 6.68759 13.2667L2.56759 13.8933C2.56759 13.8933 2.51426 13.8933 2.49426 13.8933H2.41089ZM3.57426 9.59333L3.10093 12.8067L6.38759 12.3067L12.8143 5.93333C12.9343 5.81333 13.0009 5.65333 13.0009 5.48C13.0009 5.30667 12.9343 5.14667 12.8143 5.02667L10.9609 3.18667C10.7076 2.93333 10.2943 2.93333 10.0343 3.18667L3.57426 9.59333Z" fill="#1B73E8" stroke="#1B73E8" stroke-width="0.2"/>
<path d="M11.2152 8.7198C11.0886 8.7198 10.9619 8.67314 10.8619 8.57313L7.38189 5.1198C7.18855 4.92647 7.18189 4.60647 7.38189 4.41314C7.57522 4.2198 7.89522 4.21314 8.08855 4.41314L11.5686 7.86647C11.7619 8.0598 11.7686 8.3798 11.5686 8.57313C11.4686 8.67314 11.3419 8.7198 11.2152 8.7198Z" fill="#1B73E8" stroke="#1B73E8" stroke-width="0.2"/>
</svg>
