<svg width="75" height="24" viewBox="0 0 75 24" fill="none" xmlns="http://www.w3.org/2000/svg">
<mask id="mask0_8603_10120" style="mask-type:luminance" maskUnits="userSpaceOnUse" x="0" y="0" width="75" height="24">
<path fill-rule="evenodd" clip-rule="evenodd" d="M0 0H75V24H0L0 0Z" fill="white"/>
</mask>
<g mask="url(#mask0_8603_10120)">
<path fill-rule="evenodd" clip-rule="evenodd" d="M63.0017 0H11.9984C5.37167 0 0 5.40388 0 12.07C0 18.7361 5.23217 24.0004 11.8589 24.0004H62.8622C69.4885 24.0004 75.0001 18.7361 75.0001 12.07C75.0001 5.40388 69.6284 0 63.0017 0Z" fill="#7C47E1"/>
<path fill-rule="evenodd" clip-rule="evenodd" d="M62.5318 21.034C57.601 21.034 53.5898 16.9988 53.5898 12.0385C53.5898 7.0782 57.601 3.04297 62.5318 3.04297C67.4621 3.04297 71.4737 7.0782 71.4737 12.0385C71.4737 16.9988 67.4621 21.034 62.5318 21.034Z" fill="white"/>
<path fill-rule="evenodd" clip-rule="evenodd" d="M62.5324 18.1732C59.164 18.1732 56.4336 15.426 56.4336 12.0378C56.4336 8.64912 59.164 5.90234 62.5324 5.90234C65.9005 5.90234 68.6313 8.64912 68.6313 12.0378C68.6313 15.426 65.9005 18.1732 62.5324 18.1732Z" fill="#44CB86"/>
<path fill-rule="evenodd" clip-rule="evenodd" d="M12.458 18.1379C9.11419 18.1379 6.3943 15.4013 6.3943 12.0378C6.3943 8.674 9.11419 5.93743 12.458 5.93743C15.8014 5.93743 18.5217 8.674 18.5217 12.0378C18.5217 15.4013 15.8014 18.1379 12.458 18.1379ZM21.3891 12.0376C21.3891 7.08237 17.3819 3.05078 12.4563 3.05078C7.53063 3.05078 3.52344 7.08237 3.52344 12.0376C3.52344 16.9924 7.53063 21.024 12.4563 21.024C14.795 21.024 16.9258 20.115 18.52 18.63V19.581C18.52 20.3778 19.1624 21.024 19.9547 21.024C20.7468 21.024 21.3891 20.3778 21.3891 19.581V12.3259C21.3891 12.2974 21.3881 12.2705 21.3866 12.245C21.3881 12.1761 21.3891 12.1068 21.3891 12.0376Z" fill="white"/>
<path fill-rule="evenodd" clip-rule="evenodd" d="M32.2569 21.0338C27.2972 21.0338 23.2617 16.9741 23.2617 11.9847C23.2617 6.99447 27.2972 2.93555 32.2569 2.93555C34.4811 2.93555 36.6166 3.75856 38.2691 5.25332C38.8619 5.78948 38.9104 6.70726 38.3778 7.30356C37.8449 7.90022 36.9322 7.9487 36.3398 7.41254C35.2174 6.39781 33.7674 5.83905 32.2569 5.83905C28.8885 5.83905 26.1479 8.59566 26.1479 11.9847C26.1479 15.3733 28.8885 18.1303 32.2569 18.1303C33.7685 18.1303 35.2192 17.5708 36.3416 16.5546C36.934 16.0181 37.8467 16.0665 38.3796 16.6625C38.913 17.2584 38.8648 18.1762 38.2728 18.7127C36.6192 20.2093 34.483 21.0338 32.2569 21.0338Z" fill="white"/>
<path fill-rule="evenodd" clip-rule="evenodd" d="M53.7129 18.3986L45.9717 11.8652L53.7129 5.46699C54.323 4.95853 54.4074 4.04877 53.9016 3.43498C53.3958 2.82154 52.4911 2.73662 51.8814 3.24544L43.4942 10.2421V4.3564C43.4942 3.55927 42.8518 2.9134 42.0594 2.9134C41.2674 2.9134 40.625 3.55927 40.625 4.3564V19.5092C40.625 20.3063 41.2674 20.9526 42.0594 20.9526C42.8518 20.9526 43.4942 20.3063 43.4942 19.5092V13.6235L51.8814 20.6202C52.1495 20.8436 52.4738 20.9526 52.7966 20.9526C53.2085 20.9526 53.6179 20.7747 53.9016 20.4306C54.4074 19.8172 54.323 18.9074 53.7129 18.3986Z" fill="white"/>
</g>
</svg>
