<svg xmlns="http://www.w3.org/2000/svg" width="53" height="54" viewBox="0 0 53 54" fill="none">
<path d="M9.53247 26.7918L16.1625 24.5568C17.5425 24.0468 18.1275 21.0018 22.7025 16.4868C26.7225 12.3318 29.7525 7.36682 31.5825 1.92182C31.6425 1.74182 31.7475 1.57682 31.8825 1.45682C32.0175 1.32182 32.1825 1.21682 32.3625 1.17182C32.5425 1.11182 32.7375 1.09682 32.9325 1.12682C33.1275 1.15682 33.3075 1.21682 33.4725 1.32182C35.7225 2.79182 39.2925 6.75182 34.4625 15.6468C33.9675 16.5768 46.7775 12.8268 50.8275 17.5668C53.5575 20.8218 50.6625 36.6468 46.4325 40.9968C42.6375 44.9268 23.2125 42.5268 23.2125 42.5268L14.3475 46.7118" fill="white"/>
<path d="M29.2729 37.0674C25.6279 37.0674 22.0129 36.3174 18.6829 34.8474C15.3529 33.3774 12.3829 31.2174 9.98291 28.5324L14.3479 46.7124L23.1679 42.5574C23.1679 42.5574 42.6829 44.9574 46.3879 41.0274C49.1479 38.1924 51.3679 30.4974 51.7579 24.5874C49.3279 28.3074 46.0129 31.3974 42.0829 33.5724C38.1679 35.7474 33.7579 36.9474 29.2579 37.0674H29.2729Z" fill="#E7E7F0"/>
<path d="M14.3478 47.8224C13.9278 47.8224 13.5228 47.5824 13.3278 47.1774C13.0578 46.6224 13.2978 45.9474 13.8678 45.6774L22.7328 41.4924C22.9278 41.4024 23.1378 41.3724 23.3478 41.3874C30.6378 42.2874 43.1478 42.7524 45.6228 40.1874C49.6878 36.0024 52.1928 20.9124 49.9728 18.2724C47.4978 15.3624 40.3878 16.2624 36.9828 16.6974C34.7178 16.9824 34.0428 17.0724 33.5478 16.3524C33.3078 16.0074 33.2928 15.4674 33.4878 15.1074C37.8378 7.09738 34.9728 3.61738 32.8728 2.26738H32.6778C30.7878 7.86238 27.6228 13.0374 23.5278 17.2824C21.0378 19.7424 19.7928 21.6924 18.8928 23.1174C18.0978 24.3624 17.5278 25.2624 16.5678 25.6224L9.90777 27.8574C9.30777 28.0524 8.67777 27.7374 8.48277 27.1524C8.28777 26.5674 8.60277 25.9224 9.18777 25.7274L15.8178 23.4924C16.0428 23.4174 16.5378 22.6074 16.9878 21.9174C17.8878 20.4924 19.2678 18.3174 21.9228 15.7074C25.7778 11.7174 28.7628 6.82738 30.5178 1.59238C30.6528 1.23238 30.8478 0.917376 31.1028 0.677376C31.3578 0.422376 31.6728 0.242376 32.0178 0.122376C32.3628 0.0173758 32.7228 -0.0276242 33.0828 0.0173758C33.4428 0.0623758 33.7878 0.197376 34.0878 0.392376C36.1728 1.74238 40.3428 5.74738 36.2778 14.5374C36.4128 14.5224 36.5478 14.5074 36.6828 14.4924C40.7778 13.9824 48.3978 13.0224 51.6678 16.8474C54.9978 20.8074 51.4428 37.4424 47.2278 41.7924C43.3278 45.8274 26.5428 44.0724 23.3778 43.6974L14.8128 47.7474C14.6628 47.8224 14.4978 47.8524 14.3328 47.8524L14.3478 47.8224Z" fill="#36354C"/>
<path d="M22.6577 48.1523L6.98268 51.5123L1.11768 25.9373L16.7927 22.5923L22.6427 48.1523H22.6577Z" fill="white"/>
<path d="M18.5473 48.7221L6.90732 51.9771L1.13232 25.9221L12.7423 23.4771L18.5473 48.7221Z" fill="#B9F4F9"/>
<path d="M6.96799 52.637C6.45799 52.637 5.99299 52.277 5.87299 51.767L0.0229922 26.192C-0.0370078 25.892 0.0229922 25.592 0.172992 25.337C0.337992 25.082 0.592992 24.902 0.892992 24.842L16.568 21.497C17.168 21.362 17.768 21.752 17.903 22.352L23.753 47.912C23.813 48.212 23.753 48.512 23.603 48.767C23.438 49.022 23.183 49.202 22.883 49.262L7.20799 52.622C7.13299 52.637 7.04299 52.652 6.96799 52.652V52.637ZM2.46799 26.807L7.82299 50.192L21.308 47.312L15.953 23.942L2.48299 26.807H2.46799Z" fill="#36354C"/>
<path d="M33.368 47.8222L33.398 49.2172C33.398 49.3072 33.428 49.3822 33.458 49.4572C33.503 49.5322 33.563 49.5922 33.638 49.6372L34.808 50.4322C34.898 50.4772 34.958 50.5522 35.003 50.6422C35.048 50.7322 35.063 50.8372 35.048 50.9272C35.048 51.0322 35.003 51.1222 34.928 51.1972C34.868 51.2722 34.778 51.3322 34.688 51.3622L33.383 51.7372C33.308 51.7672 33.233 51.8122 33.173 51.8722C33.113 51.9322 33.083 52.0072 33.053 52.0972L32.723 53.5972C32.693 53.6872 32.648 53.7772 32.573 53.8372C32.498 53.8972 32.408 53.9422 32.318 53.9572C32.228 53.9722 32.123 53.9572 32.033 53.9272C31.943 53.8972 31.853 53.8372 31.793 53.7472L30.923 52.6372C30.923 52.6372 30.803 52.5172 30.728 52.4722C30.653 52.4272 30.563 52.4122 30.473 52.4122L29.078 52.4572C28.958 52.5322 28.823 52.5472 28.688 52.5172C28.553 52.4872 28.433 52.3972 28.358 52.2922C28.283 52.1722 28.253 52.0372 28.283 51.9022C28.313 51.7672 28.388 51.6472 28.508 51.5872L29.303 50.4622C29.378 50.3872 29.438 50.2822 29.453 50.1772C29.468 50.0722 29.453 49.9522 29.423 49.8472L28.943 48.5272C28.898 48.4372 28.898 48.3322 28.913 48.2422C28.928 48.1522 28.973 48.0622 29.048 47.9872C29.123 47.9122 29.198 47.8672 29.303 47.8372C29.393 47.8222 29.498 47.8222 29.603 47.8522L30.893 48.3472C30.968 48.3772 31.058 48.3922 31.148 48.3772C31.238 48.3772 31.313 48.3322 31.373 48.2722L32.483 47.4022C32.558 47.3422 32.648 47.2972 32.753 47.2822C32.858 47.2822 32.948 47.2822 33.038 47.3272C33.128 47.3722 33.203 47.4322 33.263 47.5072C33.323 47.5822 33.353 47.6872 33.368 47.7772V47.8222Z" fill="#D0BDF4"/>
<path d="M12.9225 5.01123L13.5075 7.62123C13.5375 7.78623 13.6125 7.93623 13.7325 8.07123C13.8375 8.20623 13.9875 8.29623 14.1375 8.35623L16.6725 9.37623C16.8525 9.45123 17.0025 9.57123 17.1225 9.72123C17.2425 9.87123 17.3025 10.0512 17.3175 10.2462C17.3175 10.4412 17.2875 10.6212 17.1975 10.7862C17.1075 10.9512 16.9725 11.1012 16.8075 11.1912L14.5425 12.5712C14.3925 12.6612 14.2725 12.7662 14.1975 12.9162C14.1075 13.0512 14.0625 13.2162 14.0475 13.3812L13.7475 16.0662C13.7475 16.2612 13.6725 16.4412 13.5525 16.5912C13.4475 16.7412 13.2825 16.8612 13.1025 16.9362C12.9225 17.0112 12.7275 17.0262 12.5325 16.9962C12.3375 16.9662 12.1575 16.8912 12.0225 16.7562L9.96747 14.9862C9.83247 14.8812 9.68247 14.7912 9.51747 14.7612C9.35247 14.7312 9.18747 14.7162 9.00747 14.7612L6.36747 15.4212C6.18747 15.4662 5.97747 15.4512 5.79747 15.4062C5.61747 15.3462 5.45247 15.2412 5.33247 15.0912C5.21247 14.9412 5.12247 14.7762 5.09247 14.5812C5.06247 14.4012 5.09247 14.2062 5.16747 14.0262L6.24747 11.5362C6.33747 11.4012 6.36747 11.2362 6.36747 11.0712C6.36747 10.9062 6.32247 10.7412 6.24747 10.6062L4.80747 8.38623C4.70247 8.22123 4.65747 8.04123 4.65747 7.84623C4.65747 7.65123 4.71747 7.47123 4.82247 7.30623C4.92747 7.14123 5.07747 7.00623 5.24247 6.93123C5.42247 6.84123 5.61747 6.81123 5.79747 6.82623L8.51247 7.09623C8.67747 7.09623 8.85747 7.08123 9.00747 7.02123C9.15747 6.96123 9.30747 6.85623 9.41247 6.72123L11.0175 4.62123C11.1375 4.45623 11.3025 4.32123 11.4975 4.26123C11.6925 4.18623 11.9025 4.17123 12.0975 4.21623C12.2925 4.26123 12.4875 4.36623 12.6225 4.51623C12.7575 4.66623 12.8625 4.84623 12.8925 5.05623L12.9225 5.01123Z" fill="#D0BDF4"/>
</svg>
