<svg xmlns="http://www.w3.org/2000/svg" width="20" height="20" viewBox="0 0 20 20" fill="none">
<path fill-rule="evenodd" clip-rule="evenodd" d="M9.82667 5C7.16097 5 5 7.16097 5 9.82667C5 12.4924 7.16097 14.6533 9.82667 14.6533C12.4924 14.6533 14.6533 12.4924 14.6533 9.82667C14.6533 7.16097 12.4924 5 9.82667 5ZM4 9.82667C4 6.60869 6.60869 4 9.82667 4C13.0446 4 15.6533 6.60869 15.6533 9.82667C15.6533 13.0446 13.0446 15.6533 9.82667 15.6533C6.60869 15.6533 4 13.0446 4 9.82667Z" fill="#36354C"/>
<path fill-rule="evenodd" clip-rule="evenodd" d="M12.1431 8.26762C12.3384 8.46288 12.3384 8.77946 12.1431 8.97472L9.36013 11.7577C9.2587 11.8592 9.09424 11.8592 8.99281 11.7577L7.5098 10.2747C7.31454 10.0795 7.31454 9.76288 7.5098 9.56762V9.56762C7.70507 9.37235 8.02165 9.37235 8.21691 9.56762L9.17647 10.5272L11.436 8.26762C11.6313 8.07235 11.9479 8.07235 12.1431 8.26762V8.26762Z" fill="#36354C"/>
</svg>