<svg xmlns="http://www.w3.org/2000/svg" width="100" height="100" viewBox="0 0 100 100" fill="none">
  <rect width="100" height="100" fill="white"/>
  <path d="M50 80C70.7107 80 87.5 63.2107 87.5 42.5C87.5 21.7893 70.7107 5 50 5C29.2893 5 12.5 21.7893 12.5 42.5C12.5 63.2107 29.2893 80 50 80Z" fill="url(#paint0_linear_10907_5867)"/>
  <path opacity="0.8" d="M50 70C65.1878 70 77.5 57.6878 77.5 42.5C77.5 27.3122 65.1878 15 50 15C34.8122 15 22.5 27.3122 22.5 42.5C22.5 57.6878 34.8122 70 50 70Z" fill="white"/>
  <path d="M45.8735 52.74C45.4427 52.5652 45.0507 52.2982 44.7289 51.9486L37.1016 43.7063C35.9037 42.4099 35.9788 40.3876 37.2685 39.1834C38.5583 37.9816 40.5789 38.0545 41.7767 39.3509L47.0084 45.0027L58.1686 32.3298C59.335 31.0067 61.3507 30.8828 62.6719 32.0506C63.9932 33.2208 64.1166 35.2431 62.9502 36.5687L49.4572 51.8903C48.8595 52.5677 48.0078 52.961 47.1052 52.9731C46.6793 52.978 46.2606 52.8978 45.8735 52.74Z" fill="url(#paint1_linear_10907_5867)"/>
  <path opacity="0.1" d="M49.7414 92.5C33.3185 92.5 20 91.3519 20 89.9286C20 88.5053 33.3185 87.3572 49.7414 87.3572C66.1643 87.3572 79.4828 88.5053 79.4828 89.9286C79.4828 91.3519 66.1643 92.5 49.7414 92.5Z" fill="url(#paint2_radial_10907_5867)"/>
  <defs>
    <linearGradient id="paint0_linear_10907_5867" x1="60.4973" y1="111.906" x2="60.4973" y2="-20.9735" gradientUnits="userSpaceOnUse">
      <stop stop-color="#7D7D7F"/>
      <stop offset="1" stop-color="white"/>
    </linearGradient>
    <linearGradient id="paint1_linear_10907_5867" x1="48.75" y1="55" x2="48.8394" y2="23.1253" gradientUnits="userSpaceOnUse">
      <stop stop-color="#0FA457"/>
      <stop offset="1" stop-color="#8CE99A"/>
    </linearGradient>
    <radialGradient id="paint2_radial_10907_5867" cx="0" cy="0" r="1" gradientUnits="userSpaceOnUse" gradientTransform="translate(51.851 89.4878) rotate(180) scale(29.3617 2.7747)">
      <stop/>
      <stop offset="1" stop-color="#414042" stop-opacity="0"/>
    </radialGradient>
  </defs>
</svg>