<svg xmlns="http://www.w3.org/2000/svg" width="22" height="20" viewBox="0 0 22 20" fill="none">
  <path fill-rule="evenodd" clip-rule="evenodd" d="M13.8279 17.1523H7.64062V15.6523H13.8279V17.1523Z" fill="#36354C"/>
  <path fill-rule="evenodd" clip-rule="evenodd" d="M13.8999 14.4155C14.4261 13.8893 15.1397 13.5938 15.8838 13.5938H15.8843L15.8848 13.5938C16.6283 13.5947 17.341 13.8906 17.8665 14.4167C18.3919 14.9428 18.6871 15.6559 18.6871 16.3995C18.6871 16.7676 18.6145 17.1321 18.4737 17.4722C18.3328 17.8124 18.1262 18.1214 17.866 18.3816C17.6057 18.6419 17.2967 18.8484 16.9566 18.9893C16.6166 19.1301 16.2524 19.2026 15.8845 19.2027C15.8843 19.2027 15.8841 19.2027 15.8838 19.2027V18.4527L15.8848 19.2027C15.8847 19.2027 15.8846 19.2027 15.8845 19.2027C15.5162 19.2031 15.1514 19.1309 14.8109 18.9903C14.4704 18.8496 14.161 18.6432 13.9003 18.3828C13.6396 18.1225 13.4329 17.8133 13.2918 17.473C13.1507 17.1326 13.0781 16.7678 13.0781 16.3995C13.0781 15.6554 13.3737 14.9417 13.8999 14.4155ZM15.8834 15.0937C15.5372 15.0938 15.2052 15.2314 14.9605 15.4761C14.7156 15.721 14.5781 16.0531 14.5781 16.3995C14.5781 16.5708 14.6118 16.7404 14.6774 16.8986C14.743 17.0568 14.8391 17.2005 14.9603 17.3216C15.0815 17.4426 15.2253 17.5386 15.3836 17.604C15.5419 17.6694 15.7116 17.703 15.8829 17.7028L15.8834 17.7028H15.8838C16.055 17.7028 16.2244 17.6691 16.3826 17.6036C16.5407 17.5381 16.6843 17.4421 16.8054 17.321C16.9264 17.2 17.0224 17.0563 17.0879 16.8982C17.1534 16.7401 17.1871 16.5706 17.1871 16.3995C17.1871 16.0534 17.0498 15.7215 16.8052 15.4767C16.5608 15.232 16.2293 15.0942 15.8834 15.0937Z" fill="#36354C"/>
  <path fill-rule="evenodd" clip-rule="evenodd" d="M5.58447 13.5547L5.58538 13.5547C6.32892 13.5556 7.04168 13.8516 7.56711 14.3777C8.09254 14.9037 8.38768 15.6169 8.38768 16.3604C8.38768 17.1039 8.09234 17.8169 7.56663 18.3426C7.04093 18.8683 6.32793 19.1636 5.58447 19.1636C4.841 19.1636 4.128 18.8683 3.6023 18.3426C3.07659 17.8169 2.78125 17.1039 2.78125 16.3604C2.78125 15.6169 3.07639 14.9037 3.60182 14.3777C4.12726 13.8516 4.84001 13.5556 5.58355 13.5547L5.58447 13.5547ZM5.58447 15.0546C5.23876 15.0553 4.90741 15.193 4.66307 15.4376C4.41853 15.6825 4.28118 16.0144 4.28118 16.3604C4.28118 16.7061 4.41849 17.0376 4.6629 17.282C4.90733 17.5264 5.23882 17.6637 5.58447 17.6637C5.93012 17.6637 6.26161 17.5264 6.50603 17.282C6.75044 17.0376 6.88776 16.7061 6.88776 16.3604C6.88776 16.0144 6.7504 15.6825 6.50586 15.4376C6.26153 15.193 5.93017 15.0553 5.58447 15.0546Z" fill="#36354C"/>
  <path fill-rule="evenodd" clip-rule="evenodd" d="M13.3324 9.23851C13.0436 8.93633 12.6967 8.69554 12.3125 8.53058L12.9043 7.15234C13.4754 7.39757 13.991 7.75584 14.42 8.20557L14.4224 8.20806L16.7979 10.7446L19.8012 11.2875L19.8017 11.2876C20.1224 11.3459 20.4275 11.4703 20.6977 11.6527C20.9687 11.8339 21.1991 12.0695 21.3742 12.3446C21.5493 12.6195 21.666 12.9275 21.717 13.2494L21.7172 13.2503L21.7173 13.2513C21.767 13.5697 21.7515 13.895 21.6717 14.2073L21.3646 15.4827L21.3635 15.4872C21.2402 15.973 20.9571 16.4032 20.5596 16.7087C20.165 17.013 19.6805 17.1776 19.1822 17.1767H17.829V15.6767H19.1837L19.1846 15.6767C19.3508 15.6771 19.5123 15.6222 19.6439 15.5207L19.6446 15.5202L19.6453 15.5196C19.775 15.42 19.8677 15.28 19.9087 15.1218L20.2162 13.8446L20.2178 13.8385C20.2477 13.7226 20.2538 13.6017 20.2355 13.4833C20.2166 13.3648 20.1736 13.2515 20.1091 13.1504L20.109 13.1502L20.1089 13.1501C20.0454 13.0503 19.9617 12.9648 19.8632 12.8991L19.8611 12.8977L19.859 12.8962C19.7609 12.8298 19.6501 12.7846 19.5336 12.7633C19.5334 12.7633 19.5333 12.7633 19.5332 12.7633L16.0425 12.1323L13.3324 9.23851Z" fill="#36354C"/>
  <path fill-rule="evenodd" clip-rule="evenodd" d="M6.36834 8.51777C6.08726 8.66317 5.84584 8.87488 5.66497 9.13457L5.66345 9.13675L4.11788 11.3226C3.80803 11.76 3.35212 12.0723 2.83236 12.2033L2.82711 12.2046L2.07467 12.3827C1.97362 12.4075 1.88491 12.4679 1.82489 12.5529C1.76645 12.6373 1.74081 12.7401 1.75282 12.8421L1.75355 12.8484L2.00298 15.3202C2.01535 15.4103 2.05957 15.4932 2.12775 15.5537L2.12838 15.5543C2.19739 15.6156 2.28654 15.6495 2.37888 15.6495H3.18366V17.1494H2.37981C1.91983 17.1497 1.47578 16.981 1.132 16.6754C0.788892 16.3709 0.56888 15.9515 0.513348 15.496L0.512405 15.4883L0.262384 13.0106C0.209396 12.5461 0.327587 12.078 0.595029 11.6943L0.59576 11.6932L0.596494 11.6922C0.866337 11.3078 1.26701 11.0348 1.72352 10.9245L1.72527 10.9241L2.4702 10.7478C2.6414 10.7035 2.79147 10.6001 2.89376 10.4558C2.89381 10.4557 2.89385 10.4557 2.8939 10.4556L4.43579 8.27499C4.75575 7.8164 5.18247 7.44249 5.67916 7.18555L6.36834 8.51777Z" fill="#36354C"/>
  <path fill-rule="evenodd" clip-rule="evenodd" d="M3.01227 10.5879L16.4459 10.6978L16.4336 12.1977L3 12.0878L3.01227 10.5879Z" fill="#36354C"/>
  <path fill-rule="evenodd" clip-rule="evenodd" d="M9.35854 0.796875L13.4933 2.92915L13.4478 3.43197L12.7009 3.3643C13.4478 3.43197 13.4477 3.43228 13.4477 3.4326L13.4477 3.43331L13.4475 3.43498C13.4474 3.4362 13.4472 3.43764 13.4471 3.4393C13.4468 3.44261 13.4463 3.44679 13.4458 3.45181C13.4448 3.46186 13.4433 3.47529 13.4414 3.49193C13.4375 3.5252 13.4316 3.57136 13.4231 3.62901C13.4062 3.74421 13.3789 3.90588 13.3363 4.10276C13.2513 4.49539 13.1039 5.03443 12.8528 5.62712C12.3522 6.80836 11.4174 8.2506 9.69826 9.12366L9.35853 9.2962L9.01886 9.12355C7.30099 8.25039 6.36685 6.80808 5.8667 5.62694C5.61573 5.03428 5.46847 4.49528 5.3835 4.10268C5.3409 3.90582 5.31361 3.74416 5.29672 3.62897C5.28826 3.57132 5.28239 3.52517 5.27849 3.49191C5.27654 3.47527 5.27508 3.46184 5.27404 3.4518C5.27352 3.44678 5.27311 3.4426 5.27279 3.43928C5.27263 3.43763 5.27249 3.43619 5.27237 3.43497L5.27222 3.4333L5.27215 3.43259C5.27212 3.43227 5.2721 3.43196 6.019 3.3643L5.2721 3.43196L5.22656 2.92932L9.35854 0.796875ZM6.84837 3.78022C6.84874 3.78195 6.84911 3.78368 6.84949 3.78541C6.91924 4.10768 7.04112 4.55377 7.24789 5.04207C7.62557 5.93396 8.26818 6.92694 9.35883 7.59634C10.4507 6.92686 11.0938 5.93375 11.4717 5.0419C11.6786 4.55363 11.8006 4.10756 11.8704 3.78533C11.8707 3.78367 11.8711 3.78202 11.8714 3.78038L9.3588 2.48463L6.84837 3.78022Z" fill="#36354C"/>
</svg>