<svg xmlns="http://www.w3.org/2000/svg" width="18" height="18" viewBox="0 0 18 18" fill="none">
  <path fill-rule="evenodd" clip-rule="evenodd" d="M8.74 1.5C4.74146 1.5 1.5 4.74146 1.5 8.74C1.5 12.7385 4.74146 15.98 8.74 15.98C12.7385 15.98 15.98 12.7385 15.98 8.74C15.98 4.74146 12.7385 1.5 8.74 1.5ZM0 8.74C0 3.91303 3.91303 0 8.74 0C13.567 0 17.48 3.91303 17.48 8.74C17.48 13.567 13.567 17.48 8.74 17.48C3.91303 17.48 0 13.567 0 8.74Z" fill="#36354C"/>
  <path fill-rule="evenodd" clip-rule="evenodd" d="M11.4995 5.98053C11.7924 6.27342 11.7924 6.74829 11.4995 7.04119L7.04021 11.5005C6.74732 11.7934 6.27244 11.7934 5.97955 11.5005C5.68666 11.2076 5.68666 10.7328 5.97955 10.4399L10.4389 5.98053C10.7318 5.68763 11.2067 5.68763 11.4995 5.98053Z" fill="#36354C"/>
  <path fill-rule="evenodd" clip-rule="evenodd" d="M11.4995 11.5005C11.2067 11.7934 10.7318 11.7934 10.4389 11.5005L5.97955 7.04119C5.68666 6.74829 5.68666 6.27342 5.97955 5.98053C6.27244 5.68763 6.74732 5.68763 7.04021 5.98053L11.4995 10.4399C11.7924 10.7328 11.7924 11.2076 11.4995 11.5005Z" fill="#36354C"/>
</svg>