<svg xmlns="http://www.w3.org/2000/svg" width="20" height="20" viewBox="0 0 20 20" fill="none">
<path d="M15.3916 5.49175C15.6356 5.24782 15.6356 4.85234 15.3916 4.60841C15.1477 4.36449 14.7522 4.36449 14.5083 4.60841L9.99996 9.11675L5.49163 4.60842C5.2477 4.36449 4.85222 4.36449 4.60829 4.60841C4.36437 4.85234 4.36437 5.24782 4.60829 5.49175L9.11663 10.0001L4.60829 14.5084C4.36437 14.7523 4.36437 15.1478 4.60829 15.3917C4.85222 15.6357 5.2477 15.6357 5.49163 15.3917L9.99996 10.8834L14.5083 15.3917C14.7522 15.6357 15.1477 15.6357 15.3916 15.3917C15.6356 15.1478 15.6356 14.7523 15.3916 14.5084L10.8833 10.0001L15.3916 5.49175Z" fill="#D83D37"/>
</svg>
