<svg width="14" height="14" viewBox="0 0 14 14" fill="none" xmlns="http://www.w3.org/2000/svg">
<path fill-rule="evenodd" clip-rule="evenodd" d="M8.90982 0.522276C9.16177 0.270325 9.57026 0.270325 9.82221 0.522276L13.4776 4.17768C13.5986 4.29867 13.6666 4.46277 13.6666 4.63388C13.6666 4.80499 13.5986 4.96909 13.4776 5.09008L5.61897 12.9487C5.51774 13.05 5.38571 13.1146 5.24368 13.1326L1.05933 13.6615C0.861499 13.6866 0.663221 13.6187 0.522221 13.4777C0.38122 13.3367 0.313343 13.1384 0.338351 12.9406L0.867299 8.75621C0.885253 8.61418 0.949938 8.48216 1.05117 8.38093L8.90982 0.522276ZM2.11973 9.13715L1.72281 12.2771L4.86274 11.8802L12.109 4.63388L9.36602 1.89087L2.11973 9.13715Z" fill="#1B73E8"/>
<path fill-rule="evenodd" clip-rule="evenodd" d="M10.5428 7.03929L8.13416 4.64014L9.04476 3.72595L11.4534 6.12511L10.5428 7.03929Z" fill="#1B73E8"/>
</svg>
