<svg xmlns="http://www.w3.org/2000/svg" width="96" height="95" viewBox="0 0 96 95" fill="none">
  <path d="M67.2928 94.2129C76.2177 94.2129 83.4528 86.9718 83.4528 78.0395C83.4528 69.1073 76.2177 61.8662 67.2928 61.8662C58.3679 61.8662 51.1328 69.1073 51.1328 78.0395C51.1328 86.9718 58.3679 94.2129 67.2928 94.2129Z" fill="#F0F0F6"/>
  <path d="M16.6659 57.3859C21.1284 57.3859 24.7459 53.7624 24.7459 49.2926C24.7459 44.8227 21.1284 41.1992 16.6659 41.1992C12.2035 41.1992 8.58594 44.8227 8.58594 49.2926C8.58594 53.7624 12.2035 57.3859 16.6659 57.3859Z" fill="#E7E7F0"/>
  <path d="M76.8547 51.5732L62.7747 36.333C62.3224 35.8472 62.0083 35.2494 61.865 34.6012C61.7218 33.9531 61.7545 33.278 61.9599 32.6468C62.1653 32.0156 62.536 31.4511 63.0332 31.0114C63.5305 30.5717 64.1364 30.2727 64.788 30.1462L84.068 26.3597C84.6894 26.2394 85.3313 26.2799 85.9327 26.4769C86.5342 26.6739 87.0755 27.0208 87.5054 27.4854C87.9352 27.9499 88.2395 28.5169 88.3892 29.1318C88.539 29.7468 88.5294 30.3895 88.3614 30.9997L83.1614 49.973C82.9921 50.6149 82.6541 51.1998 82.1824 51.667C81.7108 52.1342 81.1227 52.4666 80.4792 52.6299C79.8357 52.7931 79.1602 52.7813 78.5229 52.5954C77.8855 52.4095 77.3096 52.0568 76.8547 51.5732Z" fill="#F3C0BE"/>
  <path d="M55.5212 8.91927L87.2945 64.1061C87.8915 65.1402 88.2057 66.3131 88.2055 67.5072C88.2053 68.7012 87.8907 69.8743 87.2934 70.9082C86.696 71.9421 85.837 72.8 84.8027 73.3965C83.7683 73.993 82.5951 74.3068 81.4011 74.306H17.8145C16.6216 74.3044 15.4501 73.9894 14.4176 73.3919C13.3851 72.7945 12.528 71.9358 11.9322 70.9023C11.3364 69.8689 11.023 68.6968 11.0234 67.5039C11.0238 66.311 11.338 65.1392 11.9345 64.1061L43.7611 8.91927C44.3565 7.88636 45.2133 7.02877 46.2456 6.43229C47.2778 5.83581 48.449 5.52148 49.6412 5.52148C50.8333 5.52148 52.0045 5.83581 53.0367 6.43229C54.0689 7.02877 54.9258 7.88636 55.5212 8.91927Z" fill="white"/>
  <path d="M81.455 75.306H17.8151C16.4456 75.3052 15.1005 74.944 13.915 74.2585C12.7294 73.5729 11.7453 72.5876 11.0615 71.401C10.3777 70.2145 10.0183 68.8688 10.0195 67.4994C10.0207 66.1299 10.3825 64.7849 11.0684 63.5996L42.8951 8.41276C43.578 7.22753 44.5612 6.24305 45.7456 5.55859C46.93 4.87414 48.2738 4.51367 49.6417 4.51367C51.0097 4.51367 52.3535 4.87414 53.5378 5.55859C54.7222 6.24305 55.7054 7.22753 56.3884 8.41276L88.2017 63.5996C88.8876 64.7849 89.2494 66.1299 89.2506 67.4994C89.2518 68.8688 88.8924 70.2145 88.2086 71.401C87.5248 72.5876 86.5407 73.5729 85.3551 74.2585C84.1696 74.944 82.8245 75.3052 81.455 75.306ZM49.6417 6.51953C48.6243 6.51233 47.6233 6.77656 46.7421 7.28516C45.8608 7.79375 45.1312 8.52819 44.6284 9.41276L12.8017 64.5996C12.2914 65.4808 12.0221 66.4804 12.0208 67.4987C12.0195 68.517 12.2864 69.5179 12.7945 70.4004C13.3026 71.2828 14.0341 72.016 14.9154 72.526C15.7967 73.0361 16.7968 73.305 17.8151 73.306H81.455C82.4729 73.3033 83.4722 73.0335 84.3529 72.5234C85.2337 72.0133 85.9652 71.2806 86.4741 70.3991C86.983 69.5176 87.2515 68.5185 87.2529 67.5007C87.2542 66.4828 86.9883 65.4824 86.4817 64.5996L54.655 9.41276C54.1512 8.52912 53.4213 7.79556 52.5403 7.28711C51.6593 6.77866 50.6589 6.51372 49.6417 6.51953Z" fill="#36354C"/>
  <path d="M49.6415 58.3201C50.9817 58.3201 52.0682 57.2337 52.0682 55.8935C52.0682 54.5533 50.9817 53.4668 49.6415 53.4668C48.3013 53.4668 47.2148 54.5533 47.2148 55.8935C47.2148 57.2337 48.3013 58.3201 49.6415 58.3201Z" fill="#36354C"/>
  <path d="M49.6397 31.4795C49.2236 31.4785 48.8118 31.5636 48.4299 31.7289C48.0481 31.8941 47.7044 32.1364 47.4204 32.4404C47.1364 32.7445 46.9181 33.1036 46.7792 33.4958C46.6403 33.888 46.5837 34.3047 46.613 34.7197L47.453 47.32C47.5119 47.8599 47.7672 48.3591 48.1705 48.723C48.5737 49.0869 49.0966 49.29 49.6397 49.2933C50.1813 49.2896 50.7026 49.0858 51.1036 48.7217C51.5046 48.3576 51.7572 47.8588 51.813 47.32L52.6663 34.7197C52.6937 34.3051 52.6357 33.8891 52.4961 33.4977C52.3565 33.1064 52.138 32.748 51.8544 32.4443C51.5708 32.1407 51.2279 31.8987 50.847 31.7328C50.4661 31.5668 50.0552 31.4804 49.6397 31.4795Z" fill="#040222"/>
  <path d="M93.8537 8.47986C95.0393 8.47986 96.0004 7.51876 96.0004 6.33319C96.0004 5.14762 95.0393 4.18652 93.8537 4.18652C92.6681 4.18652 91.707 5.14762 91.707 6.33319C91.707 7.51876 92.6681 8.47986 93.8537 8.47986Z" fill="#F3C0BE"/>
  <path d="M40.7997 83H13.6797C13.4145 83 13.1601 82.8946 12.9726 82.707C12.785 82.5195 12.6797 82.2652 12.6797 82C12.6797 81.7348 12.785 81.4805 12.9726 81.293C13.1601 81.1054 13.4145 81 13.6797 81H40.7997C41.0649 81 41.3193 81.1054 41.5068 81.293C41.6943 81.4805 41.7997 81.7348 41.7997 82C41.7997 82.2652 41.6943 82.5195 41.5068 82.707C41.3193 82.8946 41.0649 83 40.7997 83Z" fill="#F3C0BE"/>
  <path d="M30.5589 6.51972C30.4023 6.51924 30.2481 6.48157 30.109 6.40969C29.9699 6.33782 29.8499 6.23374 29.7589 6.10631L26.6656 1.93313C26.5857 1.82793 26.5278 1.70761 26.4953 1.57961C26.4627 1.45162 26.4562 1.31825 26.4761 1.18769C26.496 1.05713 26.5419 0.931688 26.6111 0.819197C26.6803 0.706707 26.7713 0.609383 26.8789 0.532739C27.0856 0.388936 27.3399 0.330849 27.5886 0.37063C27.8372 0.41041 28.0607 0.545169 28.2122 0.746281L31.3056 4.91946C31.3854 5.02466 31.4433 5.14498 31.4759 5.27297C31.5084 5.40097 31.5149 5.53434 31.495 5.6649C31.4751 5.79546 31.4292 5.92025 31.36 6.03274C31.2908 6.14523 31.1998 6.2432 31.0922 6.31985C30.9384 6.43821 30.7527 6.50773 30.5589 6.51972Z" fill="#36354C"/>
  <path d="M11.0132 35.4791H10.8398L0.826502 33.746C0.567324 33.7003 0.336585 33.5544 0.184331 33.3397C0.0320762 33.1251 -0.0294005 32.8592 0.0131882 32.5995C0.0589649 32.3395 0.204382 32.1074 0.418543 31.953C0.632704 31.7986 0.898679 31.734 1.15984 31.7727L11.1865 33.5058C11.4352 33.5467 11.6593 33.6804 11.8139 33.8795C11.9685 34.0785 12.0423 34.3282 12.0203 34.5793C11.9984 34.8304 11.8825 35.0643 11.6958 35.2336C11.509 35.4029 11.2652 35.4955 11.0132 35.4927V35.4791Z" fill="#36354C"/>
</svg>