<svg xmlns="http://www.w3.org/2000/svg" width="74" height="72" viewBox="0 0 74 72" fill="none">
  <path d="M7.00015 30.5736C9.02384 30.5736 10.6644 28.9001 10.6644 26.8358C10.6644 24.7714 9.02384 23.0979 7.00015 23.0979C4.97646 23.0979 3.33594 24.7714 3.33594 26.8358C3.33594 28.9001 4.97646 30.5736 7.00015 30.5736Z" fill="#FFE380"/>
  <path d="M68.9249 27.9591L66.5312 33.1147C64.1559 38.252 65.1502 44.2547 69.0354 48.2135L73.031 52.3012C74.7066 54.0137 72.7732 56.7572 70.5821 55.7813L65.3711 53.4428C60.3075 51.1596 54.3048 52.2828 50.2724 56.2416L46.2215 60.2373C44.5275 61.9129 41.7655 59.9795 42.7598 57.8252L45.1535 52.6695C47.5288 47.5322 46.5345 41.5295 42.6493 37.5707L38.6537 33.483C36.9781 31.7706 38.9115 29.027 41.1026 30.0029L46.3135 32.3414C51.3772 34.6246 57.3798 33.5014 61.4123 29.5426L65.4632 25.5469C67.1572 23.8713 69.9192 25.8047 68.9249 27.9591Z" fill="#FFE380"/>
  <path d="M24.0742 22.6377H53.6457V41.2718C53.6457 42.8369 52.3752 44.089 50.8285 44.089H26.8914C25.3263 44.089 24.0742 42.8185 24.0742 41.2718V22.6377Z" fill="white"/>
  <path d="M50.8083 45.4883H26.8896C24.5695 45.4883 22.6914 43.6101 22.6914 41.2901V22.6376C22.6914 21.8826 23.3175 21.2566 24.0724 21.2566H53.6439C54.3988 21.2566 55.0249 21.8826 55.0249 22.6376V41.2717C55.0249 43.5917 53.1467 45.4699 50.8267 45.4699L50.8083 45.4883ZM25.4534 24.0186V41.2717C25.4534 42.0634 26.0978 42.7079 26.8896 42.7079H50.8267C51.6185 42.7079 52.2629 42.0634 52.2629 41.2717V24.0186H25.4534Z" fill="#36354C"/>
  <path d="M51.8754 32.8201H25.5078V23.7424H52.3726V31.5864C52.3726 32.2677 52.1516 32.8201 51.8938 32.8201H51.8754Z" fill="#E7E7F0"/>
  <path d="M22.8211 12.1611H54.8968C56.4435 12.1611 57.6956 13.4132 57.6956 14.9599V22.6566H20.0039V14.9599C20.0039 13.4132 21.256 12.1611 22.8027 12.1611H22.8211Z" fill="white"/>
  <path d="M57.6938 24.0191H20.0021C19.2471 24.0191 18.6211 23.393 18.6211 22.6381V14.9598C18.6211 12.6582 20.4992 10.78 22.8009 10.78H54.895C57.1966 10.78 59.0748 12.6582 59.0748 14.9598V22.6381C59.0748 23.393 58.4487 24.0191 57.6938 24.0191ZM21.4015 21.2571H56.3128V14.9598C56.3128 14.168 55.6683 13.542 54.895 13.542H22.8193C22.0275 13.542 21.4015 14.1865 21.4015 14.9598V21.2571Z" fill="#36354C"/>
  <path d="M38.213 45.4878C37.4581 45.4878 36.832 44.8617 36.832 44.1068V25.4911C36.832 24.7362 37.4581 24.1101 38.213 24.1101C38.968 24.1101 39.594 24.7362 39.594 25.4911V44.1068C39.594 44.8617 38.968 45.4878 38.213 45.4878Z" fill="#36354C"/>
  <path d="M29.0237 13.5415C28.7475 13.5415 28.4528 13.4494 28.1951 13.2653C24.7886 10.7427 24.402 7.39147 25.1569 5.07142C26.0591 2.34627 28.5449 0.578613 31.5094 0.578613C37.6226 0.578613 39.3718 10.7795 39.556 11.9395C39.6665 12.6945 39.1509 13.3942 38.3959 13.5231C37.641 13.6335 36.9413 13.118 36.8124 12.363C36.4441 10.0246 34.6949 3.34058 31.491 3.34058C29.7418 3.34058 28.2871 4.35331 27.7531 5.93684C27.1639 7.74132 27.9189 9.63788 29.8154 11.0373C30.4231 11.4976 30.5519 12.363 30.11 12.9707C29.8338 13.3389 29.4287 13.5231 29.0052 13.5231L29.0237 13.5415Z" fill="#36354C"/>
  <path d="M38.213 19.8019C37.4581 19.8019 36.832 19.1759 36.832 18.4209V12.1421C36.832 12.1421 36.832 11.9948 36.832 11.9395C37.0162 10.7795 38.7654 0.578613 44.8786 0.578613C47.8431 0.578613 50.3289 2.34627 51.2311 5.07142C51.986 7.37306 51.5994 10.7427 48.1929 13.2653C47.5853 13.7256 46.7199 13.5783 46.2596 12.9707C45.7992 12.363 45.9281 11.4976 46.5542 11.0373C48.4323 9.63788 49.2057 7.74132 48.6164 5.93684C48.1009 4.35331 46.6278 3.34058 44.8786 3.34058C41.7115 3.34058 39.9623 9.84042 39.5756 12.271V18.4394C39.5756 19.1943 38.9495 19.8203 38.1946 19.8203L38.213 19.8019Z" fill="#36354C"/>
  <path d="M37.6939 53.4616L63.1961 50.5339C64.5402 50.3866 65.8108 51.2336 66.1606 52.5594C66.4736 53.7194 65.9949 54.9531 64.9637 55.5791L45.5747 67.7502C42.1867 69.8861 38.0806 70.549 34.1954 69.5915L20.7354 66.2772L14.7695 70.015" fill="white"/>
  <path d="M14.7704 71.3959C14.3101 71.3959 13.8682 71.1749 13.592 70.7514C13.1869 70.107 13.3894 69.26 14.0339 68.8549L19.9997 65.117C20.3128 64.9144 20.6994 64.8592 21.0677 64.9513L34.5277 68.2656C38.0446 69.1311 41.8009 68.5234 44.8575 66.6085L64.2465 54.4374C64.7621 54.1243 65.0014 53.5167 64.8357 52.9275C64.67 52.283 64.044 51.8595 63.3627 51.9332L37.8605 54.8609C37.1055 54.9529 36.4243 54.4005 36.3322 53.6456C36.2401 52.8907 36.7925 52.2094 37.5475 52.1173L63.0497 49.1896C65.0935 48.9687 66.9901 50.2576 67.5056 52.2278C67.966 53.977 67.2478 55.8184 65.7196 56.7758L46.3305 68.9469C42.6479 71.267 38.1183 72.0035 33.8832 70.954L20.994 67.7869L15.5253 71.2117C15.3044 71.359 15.0466 71.4143 14.7888 71.4143L14.7704 71.3959Z" fill="#36354C"/>
  <path d="M38.5065 62.3548C36.9783 62.3548 35.3763 62.1339 33.6823 61.7104L24.5126 59.4087C23.776 59.2246 23.3157 58.4697 23.5182 57.7331C23.7024 56.9966 24.4573 56.5547 25.1938 56.7388L34.3636 59.0405C37.457 59.8138 40.1821 59.777 42.447 58.9116C42.9994 58.709 43.073 58.2303 43.073 58.0278C43.073 57.8436 43.0362 57.3649 42.5022 57.1255L30.9756 51.933C25.6726 49.5577 19.6515 49.6682 14.4406 52.2644L2.34314 58.3039C1.66185 58.6538 0.833257 58.3776 0.483408 57.6779C0.133558 56.9966 0.409755 56.168 1.10945 55.8182L13.2069 49.7787C19.1543 46.7957 26.0408 46.6668 32.1172 49.392L43.6438 54.5845C45.0432 55.2105 45.8902 56.5547 45.835 58.083C45.7982 59.5929 44.8407 60.9186 43.4229 61.4526C41.913 62.0234 40.2742 62.318 38.5065 62.318V62.3548Z" fill="#36354C"/>
</svg>