<svg xmlns="http://www.w3.org/2000/svg" width="24" height="28" viewBox="0 0 24 28" fill="none">
  <path d="M9.39942 24.3676C8.6294 24.3676 8 23.8268 8 23.158V15.8767C8 15.2079 8.6294 14.667 9.39942 14.667H21.9339C22.7039 14.667 23.3333 15.2079 23.3333 15.8767V27.3337L19.6975 24.3735H9.39942V24.3676Z" fill="#D0BDF4"/>
  <path d="M23.4464 27.8335C23.3197 27.8335 23.1997 27.7868 23.1064 27.7001L19.633 24.4401H9.57302C9.57302 24.4401 9.52635 24.4401 9.50635 24.4401C8.49302 24.4068 7.67969 23.5735 7.67969 22.5535V21.3068C7.67969 21.0335 7.90635 20.8068 8.17969 20.8068C8.45302 20.8068 8.67969 21.0335 8.67969 21.3068V22.5535C8.67969 23.0401 9.07969 23.4401 9.57302 23.4401C9.59302 23.4401 9.61302 23.4401 9.63302 23.4401H19.8264C19.953 23.4401 20.073 23.4868 20.1664 23.5735L22.9464 26.1801V14.2001C22.9464 13.7135 22.5464 13.3135 22.053 13.3135H18.7464C18.473 13.3135 18.2464 13.0868 18.2464 12.8135C18.2464 12.5401 18.473 12.3135 18.7464 12.3135H22.053C23.0997 12.3135 23.9464 13.1601 23.9464 14.2001V27.3335C23.9464 27.5335 23.8264 27.7135 23.6464 27.7935C23.5797 27.8201 23.513 27.8335 23.4464 27.8335Z" fill="#36354C"/>
  <path d="M17.794 10.167C20.4273 10.167 22.5607 8.04033 22.5607 5.42033C22.5607 2.80033 20.4273 0.666992 17.794 0.666992C15.1607 0.666992 13.0273 2.79366 13.0273 5.41366C13.0273 8.03366 15.1607 10.1603 17.794 10.1603V10.167Z" fill="#EFE9FB"/>
  <path d="M16.988 19.0603H5.7413L1.16797 23.347V5.88029C1.16797 4.91362 1.9613 4.12695 2.92797 4.12695H16.988C17.9613 4.12695 18.748 4.91362 18.748 5.88029V17.307C18.748 18.2736 17.9546 19.0603 16.988 19.0603Z" fill="white"/>
  <path d="M1.16797 23.847C1.1013 23.847 1.03464 23.8336 0.967969 23.807C0.787969 23.727 0.667969 23.547 0.667969 23.347V5.88029C0.667969 4.64029 1.6813 3.62695 2.92797 3.62695H16.988C18.2346 3.62695 19.248 4.64029 19.248 5.88029V17.307C19.248 18.527 18.2746 19.5203 17.0613 19.5603C17.0346 19.5603 17.0146 19.5603 16.988 19.5603H5.9413L1.50797 23.7136C1.41464 23.8003 1.28797 23.847 1.16797 23.847ZM2.92797 4.62695C2.23464 4.62695 1.66797 5.18695 1.66797 5.88029V22.2003L5.4013 18.7003C5.49464 18.6136 5.61464 18.567 5.7413 18.567H16.9213C16.9213 18.567 16.9613 18.567 16.988 18.567C17.6813 18.567 18.248 18.007 18.248 17.3136V5.88029C18.248 5.18695 17.6813 4.62695 16.988 4.62695H2.92797Z" fill="#36354C"/>
  <path d="M9.86266 16.8597C9.50932 16.8597 9.22266 16.5664 9.22266 16.2197V16.013C9.22266 15.6597 9.51599 15.373 9.86266 15.373C10.2093 15.373 10.5027 15.6664 10.5027 16.013V16.2197C10.5027 16.573 10.2093 16.8597 9.86266 16.8597Z" fill="#36354C"/>
  <path d="M9.86159 14.36C9.50826 14.36 9.22159 14.0667 9.22159 13.72V13.0933C9.22159 12.22 9.76826 11.42 10.6083 11.0533C11.3149 10.7467 11.7616 10.0533 11.7483 9.28668C11.7216 8.31334 10.9016 7.50668 9.92826 7.47334C9.16159 7.43334 8.43493 7.92001 8.13493 8.64001C7.99493 8.96668 7.62159 9.12668 7.29493 8.99334C6.96826 8.86001 6.80826 8.48001 6.94159 8.15334C7.43493 6.94668 8.63493 6.14668 9.96159 6.19334C11.6149 6.23334 12.9883 7.61335 13.0349 9.26001C13.0683 10.56 12.3283 11.7267 11.1283 12.24C10.7549 12.4 10.5216 12.7267 10.5216 13.0933V13.72C10.5216 14.0733 10.2283 14.36 9.88159 14.36H9.87493H9.86159Z" fill="#36354C"/>
</svg>