<svg xmlns="http://www.w3.org/2000/svg" width="70" height="63" viewBox="0 0 70 63" fill="none">
  <path d="M30.7243 61.9693C33.1997 61.9693 35.2064 58.1225 35.2064 53.3773C35.2064 48.632 33.1997 44.7852 30.7243 44.7852C28.2489 44.7852 26.2422 48.632 26.2422 53.3773C26.2422 58.1225 28.2489 61.9693 30.7243 61.9693Z" fill="white"/>
  <path d="M35.3814 57.1477C45.8666 57.4066 56.3519 57.0668 66.7886 56.1445C67.0313 56.1283 67.2579 56.015 67.452 55.8532C67.63 55.6914 67.7595 55.4649 67.808 55.2222C68.1317 53.7982 68.3258 52.3581 68.3744 50.9019L67.9051 50.2384C67.9051 50.2384 68.6333 45.9828 65.6721 43.9926C61.6593 41.5331 57.2095 39.8826 52.5656 39.1221C52.5656 39.1221 45.0576 29.5106 35.8668 28.8634C26.6922 28.2161 19.0871 28.5721 14.3623 30.8698C9.88018 33.0057 8.3268 39.1868 4.63754 39.9635C3.95794 40.1415 3.37543 40.5622 3.01945 41.1609C2.03241 42.9085 1.46607 44.8664 1.40135 46.889C1.01301 52.164 1.11009 55.0118 3.82849 55.1898C3.82849 55.1898 3.82849 46.4035 7.06469 46.1932C10.9158 45.9505 10.7701 53.6526 10.7054 57.1315H25.7213C25.4624 55.0118 24.8961 44.9958 30.252 44.8016C36.5302 44.5913 35.3976 57.1639 35.3976 57.1639L35.3814 57.1477Z" fill="white"/>
  <path d="M52.5456 39.1053C53.387 39.3803 45.6201 31.6297 39.973 29.7203C37.0119 28.7171 21.3972 28.1022 15.6853 30.2866C12.2873 31.5811 9.97346 34.8658 8.90552 36.306C8.11265 37.3739 6.57546 40.1732 16.8827 39.5421C19.1481 39.3965 17.4167 34.7688 22.0606 35.2056L19.3422 29.1378L21.5752 28.7656L27.4974 39.5421L52.5294 39.1053H52.5456Z" fill="#E7E7F0"/>
  <path d="M42.2255 58.4416C39.9278 58.4416 37.6462 58.4092 35.3485 58.3607C35.0087 58.3607 34.7013 58.1989 34.4748 57.9561C34.2482 57.7134 34.135 57.3736 34.1673 57.0338C34.3615 54.9465 34.3777 49.0081 32.2903 46.8075C31.7402 46.2249 31.1091 45.9661 30.2839 45.9984C29.5396 46.0308 28.9571 46.3059 28.4554 46.9045C26.4652 49.2346 26.6917 55.1083 26.9183 56.9853C26.9668 57.3251 26.8535 57.6811 26.627 57.94C26.4005 58.1989 26.0607 58.3445 25.7209 58.3445H10.6887C10.3651 58.3445 10.0577 58.215 9.81497 57.9885C9.58844 57.762 9.45899 57.4384 9.47517 57.1147C9.52372 54.7685 9.6208 49.267 8.01888 47.7298C7.75999 47.4871 7.50109 47.39 7.12893 47.4062C5.93154 47.4871 5.02541 51.5808 5.02541 55.2054C5.02541 55.5452 4.87978 55.8688 4.63706 56.0953C4.39435 56.3219 4.07073 56.4351 3.73093 56.419C2.66298 56.3542 1.80539 55.9497 1.19052 55.2377C-0.217228 53.6196 -0.103961 50.5938 0.171115 46.8075C0.25202 44.6554 0.866897 42.4871 1.95102 40.5778C2.48499 39.6878 3.34259 39.0406 4.32962 38.7979C5.80209 38.4904 6.96712 36.9209 8.29396 35.1086C9.73407 33.1669 11.3522 30.9501 13.8279 29.7851C18.3423 27.6007 25.3649 26.9211 35.9311 27.6654C43.6979 28.2155 50.1865 34.6232 52.6298 37.3578C52.8563 37.6167 53.0505 37.8432 53.1961 38.005C57.8401 38.8302 62.2413 40.4969 66.2866 42.9726C69.2477 44.9467 69.2639 48.5712 69.1506 49.9304L69.3609 50.2216C69.5227 50.432 69.5875 50.7071 69.5875 50.966C69.5227 52.487 69.3286 54.008 68.9888 55.5128C68.9079 55.9659 68.649 56.4351 68.2768 56.7749C67.9046 57.1147 67.4192 57.3413 66.9176 57.3898C58.7462 58.118 50.4616 58.4901 42.2416 58.4901L42.2255 58.4416ZM36.6754 55.9497C46.659 56.1601 56.756 55.8041 66.6911 54.9141C66.9014 53.7167 67.0632 52.4708 67.1441 51.2249L66.9176 50.9012C66.7234 50.6424 66.6587 50.3187 66.7073 49.9951C66.7073 49.9628 67.2574 46.4838 64.9921 44.9628C61.141 42.6004 56.8692 41.0147 52.3709 40.2704C52.0635 40.2218 51.8046 40.06 51.6104 39.8173C51.6104 39.8173 51.3353 39.4613 50.8499 38.9112C48.6169 36.4031 42.6623 30.5132 35.8016 30.0278C25.8179 29.3158 18.9734 29.9307 14.912 31.9048C12.9864 32.8271 11.6111 34.6879 10.2842 36.484C8.71467 38.6037 7.2422 40.6102 4.91214 41.0956C4.58852 41.1765 4.28108 41.4192 4.08691 41.7428C3.21314 43.2962 2.69535 45.0761 2.63062 46.8884C2.45263 49.2022 2.32318 51.6618 2.72771 52.94C2.97042 49.898 3.87656 45.1408 7.01567 44.9305C8.08361 44.8496 8.98974 45.2055 9.73407 45.9175C11.8214 47.9078 11.9832 52.6326 11.967 55.8688H24.4426C24.2969 53.3608 24.2969 48.0534 26.6594 45.2865C27.5979 44.1861 28.8276 43.5875 30.2354 43.5389C31.7725 43.458 33.0832 44.0243 34.1026 45.1085C36.6754 47.8269 36.8048 53.3608 36.7077 55.9335L36.6754 55.9497Z" fill="#36354C"/>
  <path d="M63.6965 57.2441C63.1625 58.6195 62.2078 59.8007 60.9781 60.6745C59.7321 61.5483 58.2597 62.0499 56.7225 62.1146C52.3374 62.2117 50.9297 57.2441 50.9297 57.2441" fill="#36354C"/>
  <path d="M35.5625 44.2494C44.7371 43.1168 46.8083 47.5018 46.8083 47.5018C43.831 47.7283 40.8375 47.5503 37.9087 46.9678C37.2615 45.9646 36.4686 45.0423 35.5787 44.2494H35.5625Z" fill="#36354C"/>
  <path d="M67.529 46.4514C66.0727 47.1633 64.4546 47.5031 62.8203 47.4222C63.0468 45.9498 63.8397 44.6229 65.0047 43.7168" fill="#36354C"/>
  <path d="M46.3831 53.5064C46.3831 53.5064 45.2018 51.7912 44.3443 51.5809C42.7423 51.5161 41.1566 51.5647 39.5547 51.7103V53.7006L46.3831 53.5064Z" fill="#36354C"/>
  <path d="M61.2896 53.2796C61.2896 53.2796 62.4708 51.4997 63.3122 51.2569C64.2346 51.0951 64.8171 51.0304 65.7394 51.0628L65.5452 53.1501L61.2734 53.2634L61.2896 53.2796Z" fill="#36354C"/>
  <path d="M60.4283 47.9082C60.4283 47.9082 60.0076 49.7043 59.506 49.8985C56.8685 50.1897 54.2148 50.2868 51.5612 50.1574C50.9301 50.0441 50.0725 48.9923 49.7812 48.3775" fill="#36354C"/>
  <path d="M34.2992 55.1738C34.2992 55.1738 33.8785 60.4488 31.0469 61.9698H35.3186C35.3186 61.9698 37.6649 61.6462 38.4739 57.245L35.351 57.1479L34.2992 55.1738Z" fill="#36354C"/>
  <path d="M9.68885 55.1738C9.68885 55.1738 9.68885 61.2255 7.14844 61.9698H11.3069C11.3069 61.9698 13.1516 61.6462 13.7988 57.245L10.5464 57.1479L9.68885 55.1738Z" fill="#36354C"/>
  <path d="M30.3977 58.1023C31.142 58.1023 31.7407 56.4356 31.7407 54.3968C31.7407 52.358 31.142 50.6914 30.3977 50.6914C29.6534 50.6914 29.0547 52.358 29.0547 54.3968C29.0547 56.4356 29.6534 58.1023 30.3977 58.1023Z" fill="#36354C"/>
  <path d="M7.17902 58.1023C7.66444 58.1023 8.06897 56.4356 8.06897 54.3968C8.06897 52.358 7.66444 50.6914 7.17902 50.6914C6.69359 50.6914 6.28906 52.358 6.28906 54.3968C6.28906 56.4356 6.69359 58.1023 7.17902 58.1023Z" fill="#36354C"/>
  <path d="M22.743 40.7548H16.8854C16.5618 40.7548 16.2544 40.6254 16.0279 40.3989C15.8013 40.1723 15.6719 39.8487 15.6719 39.5251C15.7042 37.8261 16.8045 34.4766 20.7851 33.9588C24.5552 33.4734 27.1604 36.742 28.1636 38.2468C40.5258 36.92 52.5321 37.8746 52.6616 37.8908C53.325 37.9394 53.8266 38.5381 53.7781 39.2015C53.7295 39.8649 53.1632 40.3827 52.4674 40.318C52.3379 40.318 40.0566 39.3309 27.6782 40.7548C27.1927 40.8034 26.7073 40.5607 26.4646 40.1238C26.4484 40.0752 24.1831 35.9653 21.1087 36.386C19.4744 36.5963 18.7301 37.5348 18.3903 38.3439H22.7591C23.4226 38.3439 23.9727 38.894 23.9727 39.5575C23.9727 40.2209 23.4226 40.771 22.7591 40.771L22.743 40.7548Z" fill="#36354C"/>
  <path d="M51.9662 3.57031H51.9176C45.5816 3.57031 40.4453 8.70664 40.4453 15.0426V15.0588C40.4453 21.3948 45.5816 26.5311 51.9176 26.5311H51.9662C58.3021 26.5311 63.4385 21.3948 63.4385 15.0588V15.0426C63.4385 8.70664 58.3021 3.57031 51.9662 3.57031Z" fill="#8CE99A"/>
  <path d="M51.3046 28.2623H51.1751C43.473 28.2623 37.2109 22.0003 37.2109 14.2982C37.2109 6.59602 43.473 0.333984 51.1751 0.333984C58.8773 0.333984 65.2687 6.59602 65.2687 14.2982C65.2687 22.0003 59.0067 28.2623 51.3046 28.2623ZM51.3046 2.76113C44.816 2.76113 39.6381 7.93904 39.6381 14.2982C39.6381 20.6573 44.816 25.8352 51.1751 25.8352H51.3046C57.6637 25.8352 62.8416 20.6573 62.8416 14.2982C62.8416 7.93904 57.6637 2.76113 51.3046 2.76113Z" fill="#36354C"/>
  <path d="M69.2921 30.7022L61.5781 22.9883L59.8619 24.7045L67.5758 32.4185C67.9664 32.809 68.5995 32.809 68.9901 32.4185L69.2921 32.1165C69.6826 31.7259 69.6826 31.0928 69.2921 30.7022Z" fill="#36354C"/>
  <path d="M11.3374 21.4814C12.24 21.4814 12.9717 20.7498 12.9717 19.8472C12.9717 18.9446 12.24 18.2129 11.3374 18.2129C10.4348 18.2129 9.70312 18.9446 9.70312 19.8472C9.70312 20.7498 10.4348 21.4814 11.3374 21.4814Z" fill="#E7E7F0"/>
  <path d="M29.155 21.0619H15.8542C15.1908 21.0619 14.6406 20.5118 14.6406 19.8483C14.6406 19.1849 15.1908 18.6348 15.8542 18.6348H29.1388C29.8022 18.6348 30.3523 19.1849 30.3523 19.8483C30.3523 20.5118 29.8022 21.0619 29.1388 21.0619H29.155Z" fill="#E7E7F0"/>
  <path d="M11.3374 13.3115C12.24 13.3115 12.9717 12.5798 12.9717 11.6772C12.9717 10.7747 12.24 10.043 11.3374 10.043C10.4348 10.043 9.70312 10.7747 9.70312 11.6772C9.70312 12.5798 10.4348 13.3115 11.3374 13.3115Z" fill="#E7E7F0"/>
  <path d="M29.155 12.89H15.8542C15.1908 12.89 14.6406 12.3399 14.6406 11.6765C14.6406 11.013 15.1908 10.4629 15.8542 10.4629H29.1388C29.8022 10.4629 30.3523 11.013 30.3523 11.6765C30.3523 12.3399 29.8022 12.89 29.1388 12.89H29.155Z" fill="#E7E7F0"/>
</svg>