<svg xmlns="http://www.w3.org/2000/svg" width="74" height="56" viewBox="0 0 74 56" fill="none">
  <path d="M53.3607 46.3406C60.2003 46.3406 65.7449 40.796 65.7449 33.9564C65.7449 27.1168 60.2003 21.5723 53.3607 21.5723C46.5211 21.5723 40.9766 27.1168 40.9766 33.9564C40.9766 40.796 46.5211 46.3406 53.3607 46.3406Z" fill="#E7E7F0"/>
  <path d="M69.5482 48.357C69.5482 52.4911 67.5682 54.8011 65.1298 54.8011H62.2148C62.2148 54.8011 62.6823 40.877 65.1298 40.877C67.5773 40.877 69.5482 44.2228 69.5482 48.357Z" fill="#E7E7F0"/>
  <path d="M65.1306 55.4792H62.2156C62.0323 55.4792 61.8489 55.4059 61.7206 55.2684C61.5923 55.1309 61.5189 54.9567 61.5281 54.7642C61.7114 49.3192 62.4264 40.1709 65.1306 40.1709C67.9906 40.1709 70.2365 43.7642 70.2365 48.3384C70.2365 53.2609 67.6698 55.4701 65.1306 55.4701V55.4792ZM62.9306 54.1134H65.1306C67.3581 54.1134 68.8614 51.8034 68.8614 48.3567C68.8614 44.6717 67.1564 41.5642 65.1306 41.5642C64.2139 41.8667 63.2056 47.6417 62.9306 54.1134Z" fill="#36354C"/>
  <path d="M66.3406 48.357C66.3406 52.4911 64.3606 54.8011 61.9222 54.8011C59.4839 54.8011 57.5039 52.4911 57.5039 48.357C57.5039 44.2228 59.4839 40.877 61.9222 40.877C64.3606 40.877 66.3406 44.2228 66.3406 48.357Z" fill="#36354C"/>
  <path d="M61.9222 55.4798C59.3831 55.4798 56.8164 53.2707 56.8164 48.3482C56.8164 43.7648 59.0622 40.1807 61.9222 40.1807C64.7822 40.1807 67.0281 43.774 67.0281 48.3482C67.0281 53.2707 64.4614 55.4798 61.9222 55.4798ZM61.9222 41.5557C59.8964 41.5557 58.1914 44.6632 58.1914 48.3482C58.1914 51.7857 59.6947 54.1048 61.9222 54.1048C64.1497 54.1048 65.6531 51.7948 65.6531 48.3482C65.6531 44.6632 63.9481 41.5557 61.9222 41.5557Z" fill="#36354C"/>
  <path d="M14.9136 48.3573C14.9136 52.4915 13.6211 54.5173 12.017 54.5173H7.88281C7.88281 54.5173 10.422 40.8682 12.017 40.8682C13.612 40.8682 14.9136 44.214 14.9136 48.3482V48.3573Z" fill="#36354C"/>
  <path d="M12.019 55.2039H7.8848C7.68313 55.2039 7.49063 55.1122 7.35313 54.9564C7.2248 54.8005 7.1698 54.5897 7.20646 54.388C9.84646 40.1797 11.4873 40.1797 12.019 40.1797C14.3473 40.1797 15.6031 44.3872 15.6031 48.3472C15.6031 53.398 13.7515 55.1947 12.019 55.1947V55.2039ZM8.7098 53.838H12.019C13.119 53.838 14.2281 52.1422 14.2281 48.3655C14.2281 44.3872 13.0273 41.7839 12.129 41.5822C11.2948 42.4347 9.77313 48.3655 8.7098 53.838Z" fill="#36354C"/>
  <path d="M41.9661 48.357C41.9661 52.4911 39.9861 54.8011 37.5478 54.8011H34.6328C34.6328 54.8011 35.1003 40.877 37.5478 40.877C39.9953 40.877 41.9661 44.2228 41.9661 48.357Z" fill="#36354C"/>
  <path d="M37.5486 55.4792H34.6336C34.4502 55.4792 34.2669 55.4059 34.1386 55.2684C34.0103 55.1309 33.9369 54.9567 33.9461 54.7642C34.1294 49.3192 34.8444 40.1709 37.5486 40.1709C40.4086 40.1709 42.6544 43.7642 42.6544 48.3384C42.6544 53.2609 40.0877 55.4701 37.5486 55.4701V55.4792ZM35.3486 54.1134H37.5486C39.7761 54.1134 41.2794 51.8034 41.2794 48.3567C41.2794 44.6717 39.5744 41.5642 37.5486 41.5642C36.6319 41.8667 35.6236 47.6417 35.3486 54.1134Z" fill="#36354C"/>
  <path d="M38.958 50.8226C38.958 50.8226 61.6913 51.1618 71.353 50.5385C71.8663 50.5018 72.288 50.1076 72.3888 49.6126C72.6363 48.3201 73.0672 45.1851 72.9755 44.4609L72.4805 43.7918C72.4805 43.7918 73.2322 39.456 70.1797 37.4485C67.1272 35.441 61.4163 33.2043 56.6588 32.5168C56.6588 32.5168 48.913 25.0735 39.4255 24.4135C37.3813 24.2668 35.2913 24.1751 33.2197 24.1385C32.5413 24.1293 31.863 24.1201 31.1938 24.1201C31.1938 24.1201 24.8597 24.3676 22.7513 24.5234C19.3597 24.7893 16.4722 25.5043 14.483 26.4393C9.87218 28.6118 8.24968 32.5718 4.50051 33.3693C3.79468 33.516 3.18051 33.9835 2.78634 34.5976C2.14468 35.6151 1.37468 37.4209 1.15468 40.4184C0.76051 45.7901 1.09968 48.7143 3.92301 48.8335L10.248 50.8226H29.553" fill="white"/>
  <path d="M52.3608 51.5926C45.165 51.5926 39.0691 51.501 38.95 51.501L38.9683 50.126C39.1975 50.126 61.7841 50.456 71.3083 49.8418C71.5008 49.8326 71.675 49.6676 71.7116 49.466C71.9591 48.1826 72.3075 45.5335 72.2983 44.6993L71.7483 43.9568L71.7941 43.6635C71.7941 43.6635 72.4266 39.7401 69.7958 38.0076C67.0458 36.2018 61.4725 33.8918 56.55 33.186L56.33 33.1585L56.1741 33.0026C56.1008 32.9293 48.4925 25.7243 39.3716 25.0918C37.3 24.9451 35.2191 24.8535 33.2025 24.8168C32.5333 24.8076 31.8458 24.7985 31.1858 24.7985C31.1491 24.7985 24.87 25.046 22.7983 25.2018C19.6358 25.4493 16.785 26.1093 14.7683 27.0534C12.6966 28.0343 11.2666 29.3726 9.88247 30.6743C8.29663 32.1684 6.80247 33.571 4.62997 34.0293C4.1258 34.1301 3.66747 34.4693 3.34663 34.9551C2.76913 35.8718 2.0358 37.5768 1.82497 40.4551C1.60497 43.471 1.5408 46.4226 2.54913 47.5593C2.87913 47.926 3.31913 48.1093 3.9333 48.1368L4.10747 48.1643L10.3316 50.126H29.5541V51.501L10.0475 51.4735L3.80497 49.5118C2.8608 49.4568 2.09997 49.1085 1.5408 48.4851C0.257467 47.0551 0.184133 44.3235 0.4683 40.3726C0.697466 37.2101 1.5408 35.2851 2.2008 34.2401C2.71413 33.4426 3.50247 32.8835 4.35497 32.7093C6.15163 32.3243 7.44413 31.1051 8.94747 29.6935C10.3408 28.3826 11.9175 26.8976 14.1908 25.8251C16.3541 24.8076 19.3791 24.1018 22.6975 23.8451C24.7966 23.6801 30.9016 23.451 31.1583 23.4326C31.8733 23.4326 32.5425 23.4326 33.2208 23.451C35.265 23.4876 37.3641 23.5793 39.4633 23.726C48.4466 24.3493 55.7616 30.7568 56.9625 31.866C62.0225 32.636 67.715 35.0101 70.5475 36.871C73.4808 38.796 73.3066 42.5085 73.1875 43.5993L73.6275 44.186L73.6458 44.3601C73.7558 45.2401 73.2791 48.5676 73.05 49.7318C72.885 50.5476 72.1975 51.1526 71.3908 51.2168C66.7616 51.5193 59.08 51.5926 52.3516 51.5926H52.3608Z" fill="#36354C"/>
  <path d="M38.7468 48.357C38.7468 52.4911 36.7668 54.8011 34.3285 54.8011C31.8902 54.8011 29.9102 52.4911 29.9102 48.357C29.9102 44.2228 31.8902 40.877 34.3285 40.877C36.7668 40.877 38.7468 44.2228 38.7468 48.357Z" fill="#E7E7F0"/>
  <path d="M34.3402 55.4798C31.801 55.4798 29.2344 53.2707 29.2344 48.3482C29.2344 43.7648 31.4802 40.1807 34.3402 40.1807C37.2002 40.1807 39.446 43.774 39.446 48.3482C39.446 53.2707 36.8794 55.4798 34.3402 55.4798ZM34.3402 41.5557C32.3144 41.5557 30.6094 44.6632 30.6094 48.3482C30.6094 51.7857 32.1127 54.1048 34.3402 54.1048C36.5677 54.1048 38.071 51.7948 38.071 48.3482C38.071 44.6632 36.366 41.5557 34.3402 41.5557Z" fill="#36354C"/>
  <path d="M34.3374 52.1424C35.3641 52.1424 36.1982 50.4558 36.1982 48.3749C36.1982 46.2941 35.3641 44.6074 34.3374 44.6074C33.3107 44.6074 32.4766 46.2941 32.4766 48.3749C32.4766 50.4558 33.3107 52.1424 34.3374 52.1424Z" fill="white"/>
  <path d="M11.0747 48.357C11.0747 52.4911 9.67219 54.517 7.93969 54.517C6.49135 54.517 4.80469 52.482 4.80469 48.357C4.80469 44.232 6.20719 40.877 7.93969 40.877C9.67219 40.877 11.0747 44.2228 11.0747 48.357Z" fill="#E7E7F0"/>
  <path d="M7.93969 55.2045C6.04219 55.2045 4.11719 52.8486 4.11719 48.357C4.11719 43.8653 5.75802 40.1895 7.93969 40.1895C10.1214 40.1895 11.7622 43.7003 11.7622 48.357C11.7622 53.4078 9.79135 55.2045 7.93969 55.2045ZM7.93969 41.5553C6.92219 41.5553 5.49219 44.1403 5.49219 48.3478C5.49219 52.0878 6.94969 53.8203 7.93969 53.8203C9.40635 53.8203 10.3872 51.6203 10.3872 48.3478C10.3872 44.1403 8.95719 41.5553 7.93969 41.5553Z" fill="#36354C"/>
  <path d="M8.33172 51.7762C9.06505 51.7762 9.65172 50.0895 9.65172 48.0087C9.65172 45.9279 9.06505 44.2412 8.33172 44.2412C7.59839 44.2412 7.01172 45.9279 7.01172 48.0087C7.01172 50.0895 7.59839 51.7762 8.33172 51.7762Z" fill="white"/>
  <path d="M23.6196 28.5476C21.7863 28.8593 20.118 27.4843 20.0171 25.6326C19.898 23.4968 20.173 21.5809 21.3096 19.7934C23.198 16.9518 27.4605 14.8068 26.6263 10.7734C25.7555 5.15427 17.6246 6.01593 16.4605 10.6359C16.433 10.7459 16.3963 10.8651 16.3596 10.9751C15.9563 12.1576 15.0396 13.0834 13.8021 13.2943H13.7838C11.4188 13.6976 9.42047 11.4609 10.1171 9.1601C12.0055 3.03677 20.0813 -0.0707326 26.278 1.6526C34.3446 3.48593 36.013 14.7059 29.4496 19.3718C27.2588 21.2693 26.2963 22.9926 26.2596 25.3851C26.2321 26.9251 25.1963 28.2543 23.693 28.5109H23.638L23.6288 28.5384L23.6196 28.5476ZM25.4163 38.9701C20.2096 39.9601 18.8071 31.7468 24.0688 30.9768C29.248 30.0234 30.6046 38.1634 25.4163 38.9701Z" fill="#D0BDF4"/>
  <path d="M24.5651 39.7401C23.2543 39.7401 22.0993 39.2084 21.2468 38.1909C20.0918 36.8068 19.7435 34.7443 20.3851 33.0576C20.9718 31.5268 22.246 30.5459 23.9693 30.2984C25.656 29.9868 27.1685 30.5093 28.2135 31.7559C29.3593 33.1309 29.7076 35.1843 29.0751 36.8618C28.4976 38.3834 27.2418 39.3734 25.5368 39.6393C25.2068 39.7034 24.886 39.7309 24.5651 39.7309V39.7401ZM24.8951 31.5909C24.6751 31.5909 24.446 31.6093 24.1893 31.6551C22.6126 31.8843 21.9435 32.8101 21.6685 33.5526C21.201 34.7626 21.4668 36.3118 22.301 37.3109C22.8143 37.9251 23.7493 38.5851 25.2893 38.2918H25.3168C26.8568 38.0534 27.5076 37.1184 27.7918 36.3851C28.2501 35.1751 27.9935 33.6351 27.1593 32.6451C26.7376 32.1409 26.0226 31.5909 24.9043 31.5909H24.8951ZM23.1076 29.2809C22.2643 29.2809 21.4301 28.9968 20.7518 28.4559C19.9085 27.7776 19.386 26.7601 19.331 25.6784C19.1935 23.1026 19.6243 21.1776 20.7335 19.4359C21.3568 18.5009 22.191 17.6576 23.0068 16.8418C24.7851 15.0543 26.4626 13.3676 25.9585 10.9201C25.6468 8.90342 24.2168 7.65675 22.1451 7.56509C20.1101 7.47342 17.6901 8.58259 17.131 10.8193C17.0943 10.9476 17.0576 11.0851 17.0118 11.2134C16.4985 12.7076 15.3435 13.7434 13.9135 13.9818C12.5476 14.2109 11.191 13.7343 10.2743 12.6984C9.36679 11.6718 9.06429 10.2784 9.45846 8.96759C11.521 2.25759 20.1376 -0.767414 26.4626 0.992586C30.3218 1.87259 33.136 4.86092 33.961 8.97675C34.8135 13.2484 33.2001 17.5476 29.8543 19.9401C27.8101 21.7184 26.9851 23.2584 26.9485 25.4126C26.9118 27.2276 25.7018 28.7676 24.0335 29.1618L23.7401 29.2351C23.5293 29.2718 23.3276 29.2901 23.1168 29.2901L23.1076 29.2809ZM21.916 6.18092C22.0168 6.18092 22.1085 6.18092 22.2093 6.18092C24.9501 6.30925 26.9026 8.02342 27.3151 10.6726C27.966 13.8076 25.8485 15.9251 23.9876 17.8043C23.1901 18.6109 22.4293 19.3718 21.8885 20.1784C20.9535 21.6543 20.5868 23.3226 20.706 25.5959C20.7426 26.2926 21.0726 26.9434 21.6135 27.3743C22.081 27.7501 22.6493 27.9243 23.236 27.8968L23.5201 27.8509C24.721 27.6493 25.546 26.6318 25.5643 25.3759C25.6101 22.8184 26.6001 20.9301 28.9926 18.8493C31.9535 16.7318 33.356 12.9734 32.6043 9.24259C31.8893 5.66759 29.4601 3.08259 26.1143 2.32175C20.4768 0.754253 12.5751 3.49509 10.7693 9.35259C10.5126 10.1959 10.7143 11.1034 11.301 11.7726C11.8968 12.4509 12.786 12.7626 13.666 12.6159C14.601 12.4601 15.3526 11.7634 15.701 10.7551C15.7285 10.6634 15.756 10.5718 15.7835 10.4709C16.4985 7.63842 19.4135 6.17175 21.9068 6.17175L21.916 6.18092Z" fill="#36354C"/>
  <path d="M42.2509 15.6874L46.4584 7.73073C47.2101 6.3099 46.4584 4.55907 44.9093 4.12823C43.3601 3.6974 41.8109 4.7974 41.7101 6.3924L41.1418 15.3757C41.1051 16.0082 41.9668 16.2557 42.2601 15.6874H42.2509Z" fill="#36354C"/>
  <path d="M40.1423 21.0587C41.0314 21.3062 41.9573 20.7928 42.2139 19.9037C42.4706 19.0145 41.9481 18.0887 41.0589 17.832C40.1698 17.5753 39.2439 18.0978 38.9873 18.987C38.7306 19.8762 39.2531 20.802 40.1423 21.0587Z" fill="#36354C"/>
</svg>