<svg xmlns="http://www.w3.org/2000/svg" width="18" height="16" viewBox="0 0 18 16" fill="none">
  <path fill-rule="evenodd" clip-rule="evenodd" d="M11.3559 13.7129H6.21094V12.4629H11.3559V13.7129Z" fill="#0B753E"/>
  <path fill-rule="evenodd" clip-rule="evenodd" d="M3.32429 11.1819C3.73451 11.0103 4.18645 10.9642 4.62286 11.0496C5.05927 11.1351 5.4605 11.3481 5.77571 11.6618C6.09092 11.9755 6.30592 12.3757 6.39347 12.8117C6.48102 13.2477 6.43718 13.6998 6.26751 14.1109C6.09784 14.5219 5.80996 14.8733 5.44037 15.1206C5.07118 15.3676 4.63705 15.4996 4.19287 15.4999C3.89853 15.5012 3.60684 15.4444 3.33449 15.3327C3.0617 15.2209 2.81368 15.0563 2.6047 14.8483C2.39572 14.6403 2.22989 14.3931 2.11673 14.1209C2.00377 13.8491 1.94552 13.5577 1.94533 13.2633C1.94346 12.8191 2.07334 12.3844 2.31856 12.014C2.56404 11.6432 2.91407 11.3536 3.32429 11.1819ZM4.19139 14.9L4.19139 14.3001C4.39853 14.3001 4.601 14.2386 4.77316 14.1234C4.94532 14.0082 5.07942 13.8445 5.15845 13.6531C5.23749 13.4616 5.25791 13.251 5.21713 13.0479C5.17634 12.8448 5.07619 12.6584 4.92937 12.5123C4.78254 12.3662 4.59565 12.2669 4.39236 12.2271C4.18908 12.1873 3.97856 12.2088 3.78748 12.2887C3.5964 12.3687 3.43335 12.5036 3.319 12.6763C3.20465 12.849 3.14415 13.0518 3.14515 13.259L3.14516 13.2619C3.14516 13.3986 3.17218 13.5341 3.22467 13.6604C3.27717 13.7867 3.3541 13.9013 3.45104 13.9978C3.54799 14.0943 3.66304 14.1707 3.78959 14.2225C3.91614 14.2744 4.0517 14.3008 4.18847 14.3001L4.19139 14.9Z" fill="#0B753E"/>
  <path fill-rule="evenodd" clip-rule="evenodd" d="M11.7462 11.1819C12.1564 11.0103 12.6083 10.9642 13.0447 11.0496C13.4811 11.1351 13.8824 11.3481 14.1976 11.6618C14.5128 11.9755 14.7278 12.3757 14.8153 12.8117C14.9029 13.2477 14.8591 13.6998 14.6894 14.1109C14.5197 14.5219 14.2318 14.8733 13.8622 15.1206C13.4931 15.3676 13.0589 15.4996 12.6147 15.4999C12.3204 15.5012 12.0287 15.4444 11.7564 15.3327C11.4836 15.2209 11.2356 15.0563 11.0266 14.8483C10.8176 14.6403 10.6518 14.3931 10.5386 14.1209C10.4256 13.8491 10.3674 13.5577 10.3672 13.2633C10.3653 12.8191 10.4952 12.3844 10.7404 12.014C10.9859 11.6432 11.3359 11.3536 11.7462 11.1819ZM12.6133 14.9L12.6133 14.3001C12.8204 14.3001 13.0229 14.2386 13.195 14.1234C13.3672 14.0082 13.5013 13.8445 13.5803 13.6531C13.6594 13.4616 13.6798 13.251 13.639 13.0479C13.5982 12.8448 13.4981 12.6584 13.3512 12.5123C13.2044 12.3662 13.0175 12.2669 12.8142 12.2271C12.611 12.1873 12.4004 12.2088 12.2094 12.2887C12.0183 12.3687 11.8552 12.5036 11.7409 12.6763C11.6265 12.849 11.566 13.0518 11.567 13.259L11.567 13.2619C11.567 13.3986 11.5941 13.5341 11.6465 13.6604C11.699 13.7867 11.776 13.9013 11.8729 13.9978C11.9699 14.0943 12.0849 14.1707 12.2115 14.2225C12.338 14.2744 12.4736 14.3008 12.6103 14.3001L12.6133 14.9Z" fill="#0B753E"/>
  <path fill-rule="evenodd" clip-rule="evenodd" d="M10.9812 7.11232C10.7846 6.91697 10.559 6.753 10.3125 6.62616L10.8844 5.51465C11.2494 5.70247 11.583 5.94599 11.8731 6.23645C11.8784 6.24174 11.8836 6.24712 11.8887 6.2526L13.8362 8.34749L16.3349 8.79479C16.6016 8.84561 16.8551 8.95026 17.08 9.10229C17.3036 9.25342 17.4943 9.44827 17.6405 9.67507C17.7897 9.90121 17.8871 10.1575 17.9258 10.4255C17.9702 10.6773 17.9694 10.935 17.9233 11.1865C17.9211 11.1981 17.9187 11.2095 17.9159 11.2209L17.6566 12.2918C17.5551 12.6956 17.3209 13.0535 16.9915 13.3082L16.9853 13.313C16.6569 13.5604 16.2572 13.6951 15.846 13.6968L15.8433 13.6968H14.6944V12.4468H15.8417C15.9817 12.446 16.1177 12.4005 16.2299 12.317C16.3354 12.2343 16.4106 12.1191 16.4437 11.9892L16.6964 10.946C16.7133 10.8437 16.7125 10.7392 16.6937 10.6371C16.692 10.6276 16.6905 10.6182 16.6892 10.6087C16.6772 10.5205 16.6454 10.4362 16.5962 10.362L16.5909 10.354C16.536 10.2684 16.4643 10.1948 16.38 10.1379C16.2966 10.0815 16.2027 10.0425 16.1038 10.0233L13.4104 9.54115C13.2771 9.51727 13.1551 9.4507 13.0628 9.35147L10.9812 7.11232Z" fill="#0B753E"/>
  <path fill-rule="evenodd" clip-rule="evenodd" d="M1.82591 9.65645C1.73271 9.67351 1.66407 9.68607 1.58642 9.70855C1.58041 9.71029 1.57437 9.71194 1.5683 9.7135C1.47992 9.73623 1.40206 9.78855 1.34763 9.86166C1.30127 9.93015 1.28137 10.0132 1.29176 10.0954L1.29334 10.1092L1.50884 12.1812C1.5197 12.2561 1.55709 12.3246 1.61429 12.3743L1.61521 12.3751C1.67573 12.4278 1.75221 12.4586 1.83226 12.4626H2.4949V13.7126H1.82057C1.81432 13.7126 1.80806 13.7125 1.80182 13.7123C1.43044 13.7012 1.07441 13.5617 0.794265 13.3177C0.504158 13.0656 0.316907 12.7156 0.268191 12.3343L0.266504 12.3197L0.0506778 10.2445C0.00342411 9.85556 0.101368 9.46276 0.325897 9.14146L0.331854 9.13294L0.331924 9.13299C0.555493 8.82414 0.879115 8.60239 1.24762 8.50532C1.3541 8.47501 1.46404 8.45279 1.55678 8.435C1.58857 8.42891 1.61818 8.42335 1.64643 8.41806C1.71134 8.40588 1.76908 8.39506 1.82964 8.38208C1.91301 8.36421 1.97732 8.34711 2.02754 8.32924C2.05181 8.32061 2.06951 8.31292 2.08194 8.30671C2.09423 8.30058 2.09926 8.29694 2.09935 8.29688L2.09935 8.29688L2.8405 9.30345C2.59097 9.48718 2.28936 9.56194 2.09158 9.60432C1.97972 9.6283 1.89589 9.64364 1.82591 9.65645Z" fill="#0B753E"/>
  <path fill-rule="evenodd" clip-rule="evenodd" d="M5.17319 0.708082C5.33894 0.70553 5.49892 0.768935 5.61793 0.884348L9.75552 4.89706C9.8844 5.02205 9.95331 5.19643 9.94468 5.37575L9.74488 9.52999C9.72947 9.85025 9.47422 10.1069 9.15406 10.1241L5.11636 10.3405C4.94256 10.3498 4.77274 10.2863 4.64779 10.1651L0.510194 6.15237C0.262432 5.91208 0.25634 5.51645 0.496586 5.26865L4.73408 0.897957C4.84948 0.778935 5.00743 0.710634 5.17319 0.708082ZM5.19642 2.21685L1.82902 5.6901L5.32205 9.0777L8.52344 8.90608L8.68256 5.59778L5.19642 2.21685Z" fill="#0B753E"/>
  <path fill-rule="evenodd" clip-rule="evenodd" d="M7.49309 5.18718L4.85402 7.83457L3.96875 6.95208L6.60782 4.30469L7.49309 5.18718Z" fill="#0B753E"/>
  <path d="M4.59314 5.55443C4.93797 5.55443 5.21752 5.27489 5.21752 4.93005C5.21752 4.58521 4.93797 4.30566 4.59314 4.30566C4.2483 4.30566 3.96875 4.58521 3.96875 4.93005C3.96875 5.27489 4.2483 5.55443 4.59314 5.55443Z" fill="#0B753E"/>
  <path d="M6.87439 7.83471C7.21922 7.83471 7.49877 7.55516 7.49877 7.21032C7.49877 6.86548 7.21922 6.58594 6.87439 6.58594C6.52955 6.58594 6.25 6.86548 6.25 7.21032C6.25 7.55516 6.52955 7.83471 6.87439 7.83471Z" fill="#0B753E"/>
</svg>