<svg xmlns="http://www.w3.org/2000/svg" width="19" height="19" viewBox="0 0 19 19" fill="none">
  <path d="M18.1169 16.9998L14.8369 13.7798C16.0174 12.3622 16.6616 10.5746 16.6569 8.72981C16.6569 7.1614 16.1918 5.62822 15.3204 4.32414C14.4491 3.02005 13.2106 2.00365 11.7616 1.40344C10.3125 0.803241 8.71808 0.6462 7.17981 0.952181C5.64154 1.25816 4.22855 2.01342 3.11952 3.12245C2.01049 4.23148 1.25523 5.64447 0.949251 7.18274C0.64327 8.72101 0.800311 10.3155 1.40051 11.7645C2.00072 13.2135 3.01712 14.452 4.32121 15.3234C5.62529 16.1947 7.15847 16.6598 8.72688 16.6598C10.5998 16.662 12.4119 15.9953 13.8369 14.7798L17.0769 18.0198C17.2175 18.1603 17.4081 18.2391 17.6069 18.2391C17.8056 18.2391 17.9963 18.1603 18.1369 18.0198C18.2628 17.8786 18.3307 17.695 18.327 17.5059C18.3233 17.3167 18.2483 17.136 18.1169 16.9998ZM2.33688 8.70981C2.33688 7.43807 2.71399 6.1949 3.42053 5.13749C4.12707 4.08008 5.1313 3.25593 6.30622 2.76926C7.48115 2.28259 8.77401 2.15526 10.0213 2.40336C11.2686 2.65146 12.4143 3.26386 13.3136 4.16311C14.2128 5.06236 14.8252 6.20808 15.0733 7.45538C15.3214 8.70267 15.1941 9.99553 14.7074 11.1705C14.2208 12.3454 13.3966 13.3496 12.3392 14.0562C11.2818 14.7627 10.0386 15.1398 8.76688 15.1398C7.06154 15.1398 5.42604 14.4624 4.22018 13.2565C3.01432 12.0506 2.33688 10.4151 2.33688 8.70981Z" fill="#36354C"/>
</svg>