<svg xmlns="http://www.w3.org/2000/svg" width="13" height="16" viewBox="0 0 13 16" fill="none">
<path d="M6.34653 15.4917C6.22992 15.4917 6.10499 15.4584 5.99672 15.3834L2.79017 13.2512C1.14108 12.1602 0.166626 10.3279 0.166626 8.3623V2.82371C0.166626 2.54886 0.341529 2.30733 0.608047 2.22404L6.16329 0.524986C6.2799 0.491671 6.41316 0.491671 6.52976 0.524986L12.0767 2.22404C12.3349 2.30733 12.5181 2.54886 12.5181 2.82371V8.37063C12.5181 10.3362 11.5353 12.1602 9.89456 13.2596L6.688 15.3917C6.57973 15.4584 6.46313 15.5 6.3382 15.5L6.34653 15.4917ZM1.42426 3.29012V8.37063C1.42426 9.91977 2.19883 11.3523 3.48978 12.2185L6.34653 14.1174L9.20327 12.2185C10.5026 11.3606 11.2688 9.91977 11.2688 8.37063V3.29012L6.34653 1.77429L1.42426 3.29012Z" fill="#451999"/>
<path d="M5.66303 9.51972C5.49645 9.51972 5.33821 9.45309 5.22161 9.33649L3.82238 7.93727C3.58085 7.69573 3.58085 7.29596 3.82238 7.05442C4.06392 6.81289 4.4637 6.81289 4.70523 7.05442L5.66303 8.01222L7.85348 5.82177C8.09501 5.58024 8.49479 5.58024 8.73632 5.82177C8.97785 6.06331 8.97785 6.46308 8.73632 6.70462L6.10445 9.33649C5.98785 9.45309 5.8296 9.51972 5.66303 9.51972Z" fill="#451999"/>
</svg>