<svg xmlns="http://www.w3.org/2000/svg" width="16" height="16" viewBox="0 0 16 16" fill="none">
  <path fill-rule="evenodd" clip-rule="evenodd" d="M9.74534 4.03175C11.0409 3.98693 12.0774 2.9283 12.0774 1.62892L12.0774 1.62402H12.0781L12.0781 1.62892C12.0781 2.9283 13.1146 3.98693 14.4102 4.03175C13.1152 4.07655 12.0792 5.13415 12.0781 6.43264H12.0774C12.0763 5.13415 11.0403 4.07655 9.74534 4.03175ZM1.60198 8.83322C4.69434 8.83322 7.20553 6.35862 7.24261 3.29199C7.27968 6.35862 9.79087 8.83322 12.8832 8.83322H12.8836V8.83578H12.8832C9.79087 8.83578 7.27968 11.3104 7.24261 14.377C7.20553 11.3104 4.69434 8.83578 1.60198 8.83578H1.60156V8.83322H1.60198Z" fill="url(#paint0_linear_16885_55676)"/>
  <defs>
    <linearGradient id="paint0_linear_16885_55676" x1="15.8088" y1="4.41376" x2="0.602068" y2="4.68533" gradientUnits="userSpaceOnUse">
      <stop stop-color="#F66969"/>
      <stop offset="1" stop-color="#743DDC"/>
    </linearGradient>
  </defs>
</svg>