<svg xmlns="http://www.w3.org/2000/svg" width="65" height="66" viewBox="0 0 65 66" fill="none">
  <path d="M11.6523 32.746L19.7557 30.0144C21.4423 29.391 22.1573 25.6694 27.749 20.151C32.6623 15.0727 36.3657 9.00437 38.6023 2.34937C38.6757 2.12937 38.804 1.92771 38.969 1.78104C39.134 1.61604 39.3357 1.48771 39.5557 1.43271C39.7757 1.35938 40.014 1.34104 40.2523 1.37771C40.4907 1.41437 40.7107 1.48771 40.9123 1.61604C43.6623 3.41271 48.0257 8.25271 42.1223 19.1244C41.5173 20.261 57.174 15.6777 62.124 21.471C65.4607 25.4494 61.9223 44.791 56.7523 50.1077C52.114 54.911 28.3723 51.9777 28.3723 51.9777L17.5373 57.0927" fill="white"/>
  <path d="M35.7798 45.3041C31.3248 45.3041 26.9065 44.3874 22.8365 42.5908C18.7665 40.7941 15.1365 38.1541 12.2031 34.8724L17.5381 57.0924L28.3181 52.0141C28.3181 52.0141 52.1698 54.9474 56.6981 50.1441C60.0715 46.6791 62.7848 37.2741 63.2615 30.0508C60.2915 34.5974 56.2398 38.3741 51.4365 41.0324C46.6515 43.6908 41.2615 45.1574 35.7615 45.3041H35.7798Z" fill="#E7E7F0"/>
  <path d="M17.5358 58.4496C17.0224 58.4496 16.5274 58.1562 16.2891 57.6612C15.9591 56.9829 16.2524 56.1579 16.9491 55.8279L27.7841 50.7129C28.0224 50.6029 28.2791 50.5662 28.5358 50.5846C37.4458 51.6846 52.7358 52.2529 55.7608 49.1179C60.7291 44.0029 63.7908 25.5596 61.0774 22.3329C58.0524 18.7762 49.3624 19.8762 45.2008 20.4079C42.4324 20.7562 41.6074 20.8662 41.0024 19.9862C40.7091 19.5646 40.6908 18.9046 40.9291 18.4646C46.2458 8.67457 42.7441 4.42124 40.1774 2.77124H39.9391C37.6291 9.60957 33.7608 15.9346 28.7558 21.1229C25.7124 24.1296 24.1908 26.5129 23.0908 28.2546C22.1191 29.7762 21.4224 30.8762 20.2491 31.3162L12.1091 34.0479C11.3758 34.2862 10.6058 33.9012 10.3674 33.1862C10.1291 32.4712 10.5141 31.6829 11.2291 31.4446L19.3324 28.7129C19.6074 28.6212 20.2124 27.6312 20.7624 26.7879C21.8624 25.0462 23.5491 22.3879 26.7941 19.1979C31.5058 14.3212 35.1541 8.34457 37.2991 1.94624C37.4641 1.50624 37.7024 1.12124 38.0141 0.827904C38.3258 0.516237 38.7108 0.296237 39.1324 0.14957C39.5541 0.021237 39.9941 -0.033763 40.4341 0.021237C40.8741 0.076237 41.2958 0.241237 41.6624 0.47957C44.2108 2.12957 49.3074 7.02457 44.3391 17.7679C44.5041 17.7496 44.6691 17.7312 44.8341 17.7129C49.8391 17.0896 59.1524 15.9162 63.1491 20.5912C67.2191 25.4312 62.8741 45.7629 57.7224 51.0796C52.9558 56.0112 32.4408 53.8662 28.5724 53.4079L18.1041 58.3579C17.9208 58.4496 17.7191 58.4862 17.5174 58.4862L17.5358 58.4496Z" fill="#36354C"/>
  <path d="M27.6939 58.8533L8.53552 62.9599L1.36719 31.7016L20.5255 27.6133L27.6755 58.8533H27.6939Z" fill="white"/>
  <path d="M22.6678 59.5493L8.44115 63.5277L1.38281 31.6827L15.5728 28.6943L22.6678 59.5493Z" fill="#B9F4F9"/>
  <path d="M8.51643 64.3339C7.8931 64.3339 7.32477 63.8939 7.1781 63.2706L0.0281016 32.0122C-0.0452317 31.6456 0.0281016 31.2789 0.211435 30.9672C0.413102 30.6556 0.724768 30.4356 1.09143 30.3622L20.2498 26.2739C20.9831 26.1089 21.7164 26.5856 21.8814 27.3189L29.0314 58.5589C29.1048 58.9256 29.0314 59.2922 28.8481 59.6039C28.6464 59.9156 28.3348 60.1356 27.9681 60.2089L8.80977 64.3156C8.7181 64.3339 8.6081 64.3522 8.51643 64.3522V64.3339ZM3.01643 32.7639L9.56143 61.3456L26.0431 57.8256L19.4981 29.2622L3.03477 32.7639H3.01643Z" fill="#36354C"/>
  <path d="M40.7837 58.4491L40.8204 60.1541C40.8204 60.2641 40.8571 60.3557 40.8937 60.4474C40.9487 60.5391 41.0221 60.6124 41.1137 60.6674L42.5437 61.6391C42.6537 61.6941 42.7271 61.7857 42.7821 61.8957C42.8371 62.0057 42.8554 62.1341 42.8371 62.2441C42.8371 62.3724 42.7821 62.4824 42.6904 62.5741C42.6171 62.6657 42.5071 62.7391 42.3971 62.7757L40.8021 63.2341C40.7104 63.2707 40.6187 63.3257 40.5454 63.3991C40.4721 63.4724 40.4354 63.5641 40.3987 63.6741L39.9954 65.5074C39.9587 65.6174 39.9037 65.7274 39.8121 65.8007C39.7204 65.8741 39.6104 65.9291 39.5004 65.9474C39.3904 65.9657 39.2621 65.9474 39.1521 65.9107C39.0421 65.8741 38.9321 65.8007 38.8587 65.6907L37.7954 64.3341C37.7954 64.3341 37.6487 64.1874 37.5571 64.1324C37.4654 64.0774 37.3554 64.0591 37.2454 64.0591L35.5404 64.1141C35.3937 64.2057 35.2287 64.2241 35.0637 64.1874C34.8987 64.1507 34.7521 64.0407 34.6604 63.9124C34.5687 63.7657 34.5321 63.6007 34.5687 63.4357C34.6054 63.2707 34.6971 63.1241 34.8437 63.0507L35.8154 61.6757C35.9071 61.5841 35.9804 61.4557 35.9987 61.3274C36.0171 61.1991 35.9987 61.0524 35.9621 60.9241L35.3754 59.3107C35.3204 59.2007 35.3204 59.0724 35.3387 58.9624C35.3571 58.8524 35.4121 58.7424 35.5037 58.6507C35.5954 58.5591 35.6871 58.5041 35.8154 58.4674C35.9254 58.4491 36.0537 58.4491 36.1821 58.4857L37.7587 59.0907C37.8504 59.1274 37.9604 59.1457 38.0704 59.1274C38.1804 59.1274 38.2721 59.0724 38.3454 58.9991L39.7021 57.9357C39.7937 57.8624 39.9037 57.8074 40.0321 57.7891C40.1604 57.7891 40.2704 57.7891 40.3804 57.8441C40.4904 57.8991 40.5821 57.9724 40.6554 58.0641C40.7287 58.1557 40.7654 58.2841 40.7837 58.3941V58.4491Z" fill="#D0BDF4"/>
  <path d="M15.7931 6.12467L16.5081 9.31467C16.5447 9.51634 16.6364 9.69967 16.7831 9.86467C16.9114 10.0297 17.0947 10.1397 17.2781 10.213L20.3764 11.4597C20.5964 11.5513 20.7797 11.698 20.9264 11.8813C21.0731 12.0647 21.1464 12.2847 21.1647 12.523C21.1647 12.7613 21.1281 12.9813 21.0181 13.183C20.9081 13.3847 20.7431 13.568 20.5414 13.678L17.7731 15.3647C17.5897 15.4747 17.4431 15.603 17.3514 15.7863C17.2414 15.9513 17.1864 16.153 17.1681 16.3547L16.8014 19.6363C16.8014 19.8747 16.7097 20.0947 16.5631 20.278C16.4347 20.4613 16.2331 20.608 16.0131 20.6997C15.7931 20.7913 15.5547 20.8097 15.3164 20.773C15.0781 20.7363 14.8581 20.6447 14.6931 20.4797L12.1814 18.3163C12.0164 18.188 11.8331 18.078 11.6314 18.0413C11.4297 18.0047 11.2281 17.9863 11.0081 18.0413L7.78141 18.848C7.56141 18.903 7.30474 18.8847 7.08474 18.8297C6.86474 18.7563 6.66307 18.628 6.51641 18.4447C6.36974 18.2613 6.25974 18.0597 6.22307 17.8213C6.18641 17.6013 6.22307 17.363 6.31474 17.143L7.63474 14.0997C7.74474 13.9347 7.78141 13.733 7.78141 13.5313C7.78141 13.3297 7.72641 13.128 7.63474 12.963L5.87474 10.2497C5.74641 10.048 5.69141 9.82801 5.69141 9.58967C5.69141 9.35134 5.76474 9.13134 5.89307 8.92967C6.02141 8.72801 6.20474 8.56301 6.40641 8.47134C6.62641 8.36134 6.86474 8.32467 7.08474 8.34301L10.4031 8.67301C10.6047 8.67301 10.8247 8.65467 11.0081 8.58134C11.1914 8.50801 11.3747 8.37967 11.5031 8.21467L13.4647 5.64801C13.6114 5.44634 13.8131 5.28134 14.0514 5.20801C14.2897 5.11634 14.5464 5.09801 14.7847 5.15301C15.0231 5.20801 15.2614 5.33634 15.4264 5.51967C15.5914 5.70301 15.7197 5.92301 15.7564 6.17967L15.7931 6.12467Z" fill="#D0BDF4"/>
</svg>