<svg xmlns="http://www.w3.org/2000/svg" width="20" height="20" viewBox="0 0 20 20" fill="none">
<path d="M9.08504 4.00424C9.576 3.46537 10.424 3.46537 10.915 4.00424C11.2407 4.36172 11.7447 4.49677 12.2055 4.35004C12.9001 4.12885 13.6345 4.55285 13.7903 5.265C13.8936 5.73743 14.2626 6.10642 14.735 6.20974C15.4472 6.36549 15.8712 7.09988 15.65 7.7945C15.5032 8.2553 15.6383 8.75935 15.9958 9.08504C16.5346 9.576 16.5346 10.424 15.9958 10.915C15.6383 11.2407 15.5032 11.7447 15.65 12.2055C15.8712 12.9001 15.4472 13.6345 14.735 13.7903C14.2626 13.8936 13.8936 14.2626 13.7903 14.735C13.6345 15.4472 12.9001 15.8712 12.2055 15.65C11.7447 15.5032 11.2407 15.6383 10.915 15.9958C10.424 16.5346 9.576 16.5346 9.08504 15.9958C8.75935 15.6383 8.2553 15.5032 7.7945 15.65C7.09988 15.8712 6.36549 15.4472 6.20974 14.735C6.10642 14.2626 5.73743 13.8936 5.265 13.7903C4.55285 13.6345 4.12885 12.9001 4.35004 12.2055C4.49677 11.7447 4.36172 11.2407 4.00424 10.915C3.46537 10.424 3.46537 9.576 4.00424 9.08504C4.36172 8.75935 4.49677 8.2553 4.35004 7.7945C4.12885 7.09988 4.55285 6.36549 5.265 6.20974C5.73743 6.10642 6.10642 5.73743 6.20974 5.265C6.36549 4.55285 7.09988 4.12885 7.7945 4.35004C8.2553 4.49677 8.75935 4.36172 9.08504 4.00424Z" fill="#F58700"/>
<path fill-rule="evenodd" clip-rule="evenodd" d="M10.5 7.4502C10.5 7.17405 10.2761 6.9502 10 6.9502C9.72386 6.9502 9.5 7.17405 9.5 7.4502V10.4502C9.5 10.7263 9.72386 10.9502 10 10.9502C10.2761 10.9502 10.5 10.7263 10.5 10.4502V7.4502ZM10.7008 12.3504C10.7008 12.737 10.3874 13.0504 10.0008 13.0504C9.61418 13.0504 9.30078 12.737 9.30078 12.3504C9.30078 11.9638 9.61418 11.6504 10.0008 11.6504C10.3874 11.6504 10.7008 11.9638 10.7008 12.3504Z" fill="white"/>
</svg>