<svg xmlns="http://www.w3.org/2000/svg" width="56" height="25" viewBox="0 0 56 25" fill="none">
  <g clip-path="url(#clip0_3581_68524)">
    <path d="M28 0.00878906C25.9375 0.00912284 23.9082 0.529047 22.0996 1.52057C20.2911 2.51209 18.7614 3.94325 17.6519 5.68194H0L1.75714 7.43908H16.735C16.4505 8.10049 16.2247 8.78564 16.0602 9.48661H3.80467L5.54023 11.2222H15.7766C15.743 11.5761 15.7248 11.9313 15.722 12.2868C15.7252 12.6149 15.7416 12.9428 15.7711 13.2697H7.58776L9.32374 15.0057H16.0382C16.1939 15.7057 16.4106 16.3906 16.6859 17.0528H11.3713L13.128 18.8104H17.6159C18.719 20.5691 20.2501 22.0194 22.0661 23.0257C23.882 24.032 25.9235 24.5614 27.9996 24.5644C30.0758 24.5615 32.1175 24.0322 33.9335 23.0259C35.7496 22.0196 37.2809 20.5692 38.3841 18.8104H42.8712L44.6287 17.0528H39.3141C39.5894 16.3906 39.8061 15.7057 39.9618 15.0057H46.6763L48.4118 13.2701H40.2285C40.258 12.9431 40.2744 12.6151 40.2776 12.2868C40.2749 11.9313 40.2569 11.5761 40.2234 11.2222H50.4593L52.1949 9.48661H39.9389C39.7747 8.78567 39.5492 8.10052 39.265 7.43908H54.2424L56 5.68194H38.3481C37.2386 3.94325 35.709 2.51209 33.9004 1.52057C32.0918 0.529047 30.0625 0.00912284 28 0.00878906ZM28 1.67323C30.8149 1.67323 33.5145 2.79144 35.5049 4.78187C37.4953 6.77229 38.6136 9.47189 38.6136 12.2868C38.6136 15.1017 37.4953 17.8013 35.5049 19.7917C33.5145 21.7821 30.8149 22.9003 28 22.9003C26.6062 22.9004 25.226 22.6259 23.9382 22.0926C22.6505 21.5592 21.4804 20.7774 20.4948 19.7918C19.5092 18.8063 18.7274 17.6362 18.194 16.3485C17.6606 15.0608 17.386 13.6806 17.386 12.2868C17.386 10.893 17.6606 9.51278 18.194 8.22505C18.7274 6.93733 19.5092 5.76728 20.4948 4.78172C21.4804 3.79615 22.6505 3.01437 23.9382 2.48102C25.226 1.94766 26.6062 1.67317 28 1.67323ZM19.5567 9.53572V15.0374H20.7039V10.707L21.9146 15.0374H23.1032L24.3177 10.707V15.0374H25.4648V9.53572H23.6124L22.5152 13.2887L21.4053 9.53572H19.5567ZM26.6628 9.53572V15.0374H27.8976V9.53572H26.6628ZM29.0828 9.53572V15.0374H30.23V11.4499L32.6962 15.0374H33.9356V9.53572H32.7884V13.21L30.2846 9.53572H29.0828ZM35.2081 9.53572V15.0374H36.4433V9.53572H35.2081Z" fill="#36354C"/>
  </g>
  <defs>
    <clipPath id="clip0_3581_68524">
      <rect width="56" height="24.5728" fill="white"/>
    </clipPath>
  </defs>
</svg>