<svg xmlns="http://www.w3.org/2000/svg" width="28" height="28" viewBox="0 0 28 28" fill="none">
  <g clip-path="url(#clip0_3581_68531)">
    <path d="M27.4947 0.562301L21.1162 0.54299L21.0195 0.987534C21.0195 0.987534 22.5272 1.72205 22.9524 2.1086C23.3776 2.49518 23.4536 2.56881 23.4536 2.56881L21.43 4.55225C22.1884 5.16632 22.8684 5.85544 23.4805 6.60969L25.4071 4.60201L27.1081 6.88281H27.4947V0.562301Z" fill="#36354C"/>
    <path d="M25.606 6.13553L24.1583 7.56983L24.1577 7.5702C25.3162 9.39542 25.9971 11.5552 26.0208 13.8759C26.0886 20.5103 20.7653 25.9435 14.1309 26.0112C7.49656 26.079 2.06339 20.7557 1.99561 14.1213C1.92783 7.48696 7.25113 2.05379 13.8855 1.98604C16.3194 1.96116 18.5911 2.66256 20.4961 3.88738L21.982 2.47756C19.6564 0.861275 16.8984 -0.00959396 14.0107 -0.00959396C13.9624 -0.00959396 13.9136 -0.00939369 13.8651 -0.0088501C10.1236 0.0293732 6.62087 1.52233 4.00223 4.19499C1.38363 6.86772 -0.0374984 10.4001 0.000752518 14.1417C0.0386881 17.8579 1.51451 21.3437 4.15633 23.9571C6.79622 26.5686 10.2941 28.0068 14.0057 28.0068C14.054 28.0068 14.1028 28.0066 14.1513 28.0061C21.8751 27.9272 28.0947 21.5793 28.0157 13.8556C27.9872 11.0609 27.1453 8.3966 25.606 6.13553Z" fill="#36354C"/>
    <path d="M6.4809 13.0114H6.97552L6.14838 14.5408L5.31008 13.0117L5.91124 13.0114L5.9111 12.6309H3.42627L3.42578 13.0117H3.99449L5.15013 15.1113L6.48827 15.1123L7.62417 13.0114L8.19354 13.0117V12.6309H6.4809V13.0114Z" fill="#36354C"/>
    <path d="M14.8814 14.7271H14.3517V13.0111H14.923V12.6312L12.6289 12.6309L12.6292 13.0111H13.2065L13.2073 14.7276H12.6289V15.1123L16.0726 15.112V13.963H15.6941C15.6941 14.4029 15.3723 14.7271 14.8814 14.7271Z" fill="#36354C"/>
    <path d="M10.2364 12.5805C9.09722 12.5805 8.49219 13.1488 8.49219 13.8618C8.49219 14.5848 9.07476 15.1611 10.2429 15.1611C11.4107 15.1611 11.9871 14.5848 11.9871 13.8618C11.9871 13.1488 11.3757 12.5805 10.2364 12.5805ZM10.2237 14.7708C9.80775 14.7633 9.62487 14.3035 9.63285 13.8467C9.64111 13.3735 9.86752 12.961 10.2572 12.9677C10.6469 12.9746 10.8527 13.395 10.8443 13.8679C10.8364 14.3141 10.6522 14.7786 10.2237 14.7708Z" fill="#36354C"/>
    <path d="M19.0199 13.0114H19.5146L18.6875 14.5408L17.8492 13.0117L18.4504 13.0114L18.4502 12.6309H15.9654L15.9648 13.0117H16.5336L17.6892 15.1113L19.0273 15.1123L20.1632 13.0114L20.7326 13.0117V12.6309H19.0199V13.0114Z" fill="#36354C"/>
    <path d="M22.7663 12.5691C21.6178 12.5691 21.0078 13.1421 21.0078 13.861C21.0078 14.5898 21.5951 15.1709 22.7729 15.1709C23.9503 15.1709 24.5314 14.5898 24.5314 13.861C24.5314 13.1421 23.9149 12.5691 22.7663 12.5691ZM22.7535 14.7774C22.3341 14.7698 22.1498 14.3063 22.1578 13.8457C22.1662 13.3686 22.3944 12.9527 22.7873 12.9595C23.1802 12.9665 23.3876 13.3903 23.3791 13.8671C23.3711 14.317 23.1855 14.7853 22.7535 14.7774Z" fill="#36354C"/>
  </g>
  <defs>
    <clipPath id="clip0_3581_68531">
      <rect width="28" height="28" fill="white"/>
    </clipPath>
  </defs>
</svg>