<svg xmlns="http://www.w3.org/2000/svg" width="56" height="26" viewBox="0 0 56 26" fill="none">
  <g clip-path="url(#clip0_1975_55514)">
    <path d="M7.4769 2.39722C7.4769 2.39722 7.51519 2.28531 7.52697 2.25586C7.53875 2.22935 7.64477 1.93485 7.91277 1.90834C7.91277 1.90834 8.06886 1.89951 8.30446 1.89951C8.30446 1.89951 8.18666 2.27353 7.73018 2.35305C7.73018 2.35305 7.55053 2.39428 7.47985 2.39722H7.4769ZM53.5109 14.5014C53.4166 14.8283 52.9513 15.2641 52.3859 15.5144C51.791 15.7824 50.5482 15.8502 49.8325 15.7324C49.8325 15.7324 48.4425 15.591 47.2262 14.3217C46.8433 13.9212 46.3721 13.4647 45.9333 13.017C45.7419 12.8168 45.2706 12.3456 44.4873 12.2396C43.6715 12.1276 41.6747 12.0746 40.9267 11.8273C40.426 11.6594 39.8194 11.3207 39.0154 10.128C38.6266 9.55662 38.3527 9.40054 37.8256 9.06775C37.8256 9.06775 38.229 9.38876 38.4588 9.79223C38.7886 10.3812 38.9565 10.8112 39.1361 11.1234C39.3158 11.4385 39.519 11.7183 39.8253 11.9627C40.2052 12.269 40.4437 12.3279 40.859 12.3956C41.2536 12.4634 42.5907 12.4487 43.7363 12.431C44.8642 12.4133 45.3649 12.7785 45.736 13.0907C46.0776 13.3793 46.6666 14.2039 47.0288 14.5661C47.4588 14.9961 47.7739 15.432 48.625 15.862C48.9196 16.0122 49.4055 16.3803 49.379 16.7337C48.9961 17.1165 48.522 17.2167 47.3822 16.9133C47.4618 16.9929 48.0596 17.6202 49.0815 17.3227C48.7723 17.5789 48.4719 17.6908 48.1568 17.6732C47.0877 17.6143 46.0422 16.2978 45.4562 15.8119C45.0115 15.4438 44.9585 15.3495 44.2016 14.8253C43.053 14.0301 40.4702 14.254 40.4702 14.254L38.5766 14.3512C34.8894 14.6309 33.3403 11.3619 32.9309 10.6816C32.7896 10.446 32.66 10.2546 32.5392 10.0985C32.3507 9.84818 31.3435 8.54058 30.3246 8.11061C30.3246 8.11061 31.3259 8.97351 31.267 9.5419C31.267 9.5419 30.8517 9.34753 29.7238 9.5095C24.8644 10.2016 23.2123 8.98528 23.2123 8.98528C23.439 8.01342 22.7587 7.0121 22.7587 7.0121C23.1328 7.12991 25.5212 7.93685 27.7918 7.47742C27.7918 7.47742 24.1017 7.49804 21.513 5.43356C21.513 5.43356 23.1239 7.45092 22.7411 8.77324C22.7411 8.77324 22.476 10.181 19.6694 9.61258C19.369 9.55368 19.0185 9.45355 14.813 8.28731C13.8264 7.9928 13.4848 8.46401 13.3051 8.74674C13.2963 9.16199 12.8074 9.64792 12.56 9.80106C11.2583 9.56546 11.7767 8.35799 11.7767 8.35799C10.9579 9.52717 11.815 10.0455 12.0859 10.0838C11.9239 10.1633 11.7708 10.2193 11.6382 10.2664C11.6382 10.2664 10.5751 9.63319 11.17 8.59654C11.9975 7.15052 12.8428 6.68815 14.3889 6.54679C15.0663 6.482 15.6288 6.43488 16.0588 6.49378C17.1808 6.64986 17.8847 7.28305 19.5663 7.44503C15.9999 6.39365 15.991 4.32917 15.9792 4.28794V4.28499C15.7819 4.9653 15.8909 5.53958 16.0646 6.02552C16.0146 6.00784 15.2341 5.49541 14.9367 5.31576C13.6556 4.53238 12.6455 4.39691 12.6455 4.39691C12.2214 4.3439 12.024 3.82557 12.024 3.82557C12.0093 3.79906 11.9946 3.7755 11.9799 3.75194C11.3879 2.74179 10.8048 2.72118 10.8048 2.72118C11.1346 3.16882 11.1405 3.80495 11.1405 3.80495C11.3143 5.05954 9.89773 5.44534 9.89773 5.44534C9.02894 6.54973 9.07312 6.57329 8.88169 6.5998C8.68731 6.6263 8.26323 6.41132 8.26323 6.41132C8.19255 6.30824 8.29268 6.20516 8.29268 6.20516C8.45466 6.07558 8.59013 5.94894 8.59013 5.94894C9.50898 5.00948 9.62089 4.55005 9.50604 3.94042C9.27338 2.71823 8.40165 2.85959 8.40165 2.85959C7.98934 2.88315 7.8038 3.25128 7.8038 3.25128C7.65949 3.47805 7.34732 4.16719 7.34732 4.16719C7.15884 4.5795 6.96446 4.6708 6.86433 4.68847C6.82016 4.6973 6.74064 4.69436 6.71414 4.69436C6.41963 4.68258 6.19286 4.41163 6.19286 4.41163C6.17814 4.39691 6.16636 4.38218 6.15752 4.3704C5.88658 4.07884 6.0839 3.70188 6.0839 3.70188C6.44908 2.8537 7.15589 2.73001 7.25013 2.71823C7.35027 2.70645 7.67422 2.65933 7.67422 2.65933C8.57246 2.50913 8.99654 1.57261 8.99654 1.57261C8.38987 1.56672 8.09536 1.60501 8.09536 1.60501C7.50046 1.71103 7.29725 2.41195 7.29725 2.409C6.79365 2.52386 6.80543 2.09094 6.89378 1.95841C6.9733 1.83472 7.27075 1.31639 9.20859 0.868744C9.20859 0.868744 10.1657 0.58013 12.2066 0.674372L12.1212 0.830459C11.9416 1.17208 11.223 1.87595 10.0391 1.61679C10.0391 1.61679 10.0509 2.14395 11.3349 2.33243C11.3349 2.33243 12.4953 2.54153 14.4655 4.12302C14.4655 4.12302 13.5231 2.25291 11.9239 1.76698C11.9239 1.76698 11.7237 1.72281 11.8208 1.59912C11.8208 1.59912 12.8074 0.683207 14.0797 0.644921C14.0797 0.644921 18.3853 0.22967 20.7738 3.51928C20.7738 3.51928 20.0522 2.12333 19.5074 1.51371C19.5074 1.51371 22.0077 2.22052 25.851 3.55757C25.851 3.55757 28.4751 4.4882 30.1537 5.15084C32.4185 6.04319 38.0847 8.24902 41.6983 10.2163C42.3433 10.5668 48.8783 13.9771 48.8783 13.9771C50.6895 14.79 51.9412 14.2952 51.9412 14.2952C52.3476 14.1391 53.0868 13.5737 53.4107 13.8947C53.5786 14.0596 53.5992 14.2834 53.5197 14.5043L53.5109 14.5014ZM53.9026 13.7062C53.6375 13.1172 52.9071 13.3086 52.9071 13.3086C52.5626 13.3822 52.1679 13.7769 51.5819 13.9506C50.3243 14.3217 49.323 13.8888 49.323 13.8888C47.3881 13.0524 41.1711 9.49183 38.0082 7.93685C38.0082 7.93685 34.3328 6.23461 29.0022 4.12302C29.0022 4.12302 18.5267 -0.347559 11.5352 0.0205719C11.5352 0.0205719 7.80675 0.117758 6.63462 1.76404C6.63462 1.76404 6.43436 1.99081 6.54921 2.23524C6.54921 2.23524 6.56983 2.30593 6.52565 2.35305C6.52565 2.35305 5.89836 2.91555 5.58029 3.41621C5.46838 3.5988 5.35942 3.89036 5.5744 4.11713C5.5744 4.11713 5.67748 4.19664 5.72166 4.26732C5.81295 4.41752 5.89836 4.6384 6.01027 4.77093C6.17225 4.9653 6.50209 5.30103 6.96741 5.22152C7.17356 5.18618 7.17651 5.12728 7.17651 5.12728C7.40917 5.35699 7.78613 5.3511 7.78613 5.3511C7.73901 5.20385 7.57703 4.91229 7.55347 4.73853C7.52991 4.54416 7.58587 4.36157 7.58587 4.36157C7.65066 4.14363 7.78319 3.8668 7.92455 3.72838C8.05119 3.60469 8.3722 3.46038 8.63136 3.64003C8.83751 3.78728 9.0849 4.26438 8.87874 4.94763C8.86991 5.00064 8.64314 5.48363 8.40165 5.55725C8.40165 5.55725 8.37808 5.56609 8.33391 5.56609C8.16899 5.56609 7.86565 5.39528 7.86565 5.39528C7.86565 5.39528 7.85681 5.43945 7.90099 5.61615C7.92749 5.71629 7.96283 5.8282 7.99228 5.9136C7.99228 5.9136 7.93338 6.01963 7.8951 6.08147C7.84503 6.14626 7.78613 6.38776 7.91277 6.47905C7.91277 6.47905 8.45171 6.84424 8.97298 6.87663C9.33228 6.89725 9.4707 6.65575 9.4707 6.65575C9.73575 6.29057 9.93601 5.97839 10.2158 5.72512C10.9786 5.02715 12.0535 4.83866 12.0535 4.83866C12.1242 4.82983 13.2963 4.50293 15.2872 6.0962C14.7188 6.14332 14.0414 6.27879 13.5231 6.37009C12.0476 6.63514 11.1023 8.0252 10.8254 8.59065C10.1098 10.0691 11.5735 10.5786 11.5735 10.5786C11.5882 10.5638 12.9724 10.4549 13.6379 8.98528C13.6379 8.98528 13.8824 8.33443 14.5332 8.54353C14.9573 8.68194 18.7122 9.99249 19.5575 10.2163C19.5575 10.2163 22.0696 10.8701 23.0179 9.71566C24.5316 10.2134 25.9512 10.4519 29.6707 9.97187C30.3157 9.88647 30.8252 9.90708 30.8252 9.90708C31.694 9.97187 32.4862 10.555 32.7277 10.9408C33.7055 12.5046 34.9453 15.6175 39.2539 15.2376L41.2006 15.0609C42.3904 14.9902 43.3564 14.9431 44.34 15.4614C44.767 15.6853 45.0056 15.7677 45.7301 16.4598C46.7225 17.4052 47.6355 18.4241 48.8518 17.8675C49.2818 17.6702 49.7677 16.8986 49.7677 16.8986C49.7206 16.5482 49.5645 16.2095 49.1787 15.9209C50.2831 16.183 52.7717 16.3538 53.7347 14.6692C53.9821 14.2775 54.0115 13.9271 53.9173 13.715L53.9026 13.7062ZM10.5574 1.24865C10.6045 1.24865 10.6575 1.2516 10.7223 1.2516C10.9815 1.25455 11.2731 1.14852 11.4674 1.06017C11.6059 0.995381 11.6942 0.939425 11.6824 0.939425C11.5028 0.939425 11.2171 0.933535 11.1081 0.933535C10.6428 0.933535 10.3984 1.19859 10.3954 1.22215C10.3954 1.23687 10.4573 1.24276 10.5574 1.24865Z" fill="#36354C"/>
    <path d="M36.1092 20.5684V22.786C36.1092 23.3603 36.0473 23.8138 35.7558 24.1937C35.2846 24.8122 34.4217 25.1656 32.0156 25.1656H31.992C29.5977 25.1656 28.7289 24.8092 28.2606 24.1937C27.972 23.8138 27.9102 23.3603 27.9102 22.786V20.5684H29.5653V22.7212C29.5653 23.2984 29.6389 23.6371 29.851 23.9375C30.2103 24.4441 30.8287 24.6237 31.9419 24.6237H32.0833C33.2466 24.6237 33.815 24.4411 34.1743 23.9346C34.3863 23.6371 34.46 23.2808 34.46 22.7212V20.5654H36.1151L36.1092 20.5684ZM52.5867 21.1279C53.2081 21.1279 53.482 21.1839 53.6705 21.3282C53.8501 21.4637 53.9149 21.6669 53.9149 21.9879V22.0703C53.9149 22.359 53.8472 22.5916 53.6351 22.7389C53.426 22.8832 53.1374 22.9156 52.6073 22.9156H49.3236V21.1279H52.5867ZM53.3936 23.4457C54.015 23.4251 54.5451 23.3308 54.9516 23.1129C55.3727 22.8861 55.573 22.4561 55.573 22.0114C55.573 21.4165 55.3079 21.0366 54.8249 20.8216C54.395 20.6332 53.8619 20.5684 52.8046 20.5684H47.6685V25.0183H49.3236V23.4751H51.5L53.9826 25.0183H56L53.3936 23.4457ZM24.4291 24.4234V22.9745H26.0784V25.0183H21.2838C20.3856 25.0183 19.6758 24.9123 19.1428 24.6973C18.2534 24.338 17.844 23.6813 17.844 22.786C17.844 21.9378 18.2887 21.3518 18.8512 21.0337C19.452 20.698 20.1264 20.5684 21.2544 20.5684H25.9105V21.1633H21.7727C20.8862 21.1633 20.4033 21.2958 20.0351 21.5962C19.7082 21.8612 19.5345 22.2588 19.5345 22.7919C19.5345 23.3426 19.7171 23.749 20.0675 24.017C20.4357 24.2968 20.9334 24.4234 21.7874 24.4234H24.4321H24.4291ZM7.10639 20.5684V22.7389C7.10639 23.4398 6.94441 23.8668 6.61162 24.2084C6.0285 24.8033 4.91233 25.0183 3.33379 25.0183H0V24.4205H3.06579C4.0082 24.4205 4.64433 24.2644 5.02719 23.8845C5.31875 23.5988 5.44833 23.1983 5.44833 22.6034V20.5654H7.10345L7.10639 20.5684ZM43.5219 24.07H38.6125L37.7996 25.0183H36.8395L40.7005 20.5684H42.3321L46.196 25.0183H44.3376L43.5219 24.07ZM39.1072 23.4957H43.0271L41.0627 21.2163L39.1072 23.4957ZM14.5456 24.07H9.63618L8.82335 25.0183H7.86327L11.7242 20.5684H13.3558L17.2197 25.0183H15.3613L14.5456 24.07ZM10.1309 23.4957H14.0508L12.0865 21.2163L10.1309 23.4957Z" fill="#36354C"/>
  </g>
  <defs>
    <clipPath id="clip0_1975_55514">
      <rect width="56" height="25.1654" fill="white"/>
    </clipPath>
  </defs>
</svg>