<svg xmlns="http://www.w3.org/2000/svg" width="28" height="28" viewBox="0 0 28 28" fill="none">
  <g clip-path="url(#clip0_3581_68445)">
    <path d="M14.0154 26.6311C7.07851 26.6311 1.3953 20.92 1.3953 13.9831C1.3953 12.423 1.67389 10.9465 2.20321 9.55359L9.58581 24.4024C9.66939 24.5974 9.80868 24.7645 10.0316 24.7645C10.2544 24.7645 10.3937 24.5974 10.4773 24.4024L13.8761 16.7969C13.9039 16.7133 13.9597 16.6297 14.0432 16.6297C14.1268 16.6297 14.1547 16.7133 14.2104 16.7969L17.6092 24.4024C17.6927 24.5974 17.832 24.7645 18.0549 24.7645C18.2778 24.7645 18.4171 24.5974 18.5006 24.4024L25.8832 9.55359C26.4126 10.9465 26.6912 12.423 26.6912 13.9831C26.6354 20.92 20.9522 26.6311 14.0154 26.6311ZM14.0154 11.1137C13.9318 11.1137 13.9039 11.0301 13.8482 10.9465L9.89226 2.03169C11.1738 1.55809 12.5667 1.30736 14.0154 1.30736C15.464 1.30736 16.857 1.55809 18.1385 2.03169L14.1825 10.9465C14.1268 11.058 14.0989 11.1137 14.0154 11.1137ZM9.97584 20.2792C9.89226 20.2792 9.8644 20.1957 9.80868 20.1121L3.40114 7.18558C4.54336 5.43047 6.07559 3.95395 7.94214 2.92317L12.5667 13.2031C12.6224 13.3702 12.7617 13.426 12.901 13.426H15.1297C15.2969 13.426 15.4083 13.3981 15.4919 13.2031L20.1165 2.92317C21.9551 3.95395 23.5152 5.43047 24.6575 7.18558L18.1942 20.1121C18.1663 20.1957 18.1106 20.2792 18.0271 20.2792C17.9435 20.2792 17.9156 20.1957 17.8599 20.1121L15.4362 14.596C15.3526 14.401 15.2412 14.3732 15.074 14.3732H12.8453C12.6781 14.3732 12.5667 14.401 12.4831 14.596L10.143 20.1121C10.1151 20.1957 10.0594 20.2792 9.97584 20.2792ZM14.0154 27.9126C21.7323 27.9126 27.9448 21.7001 27.9448 13.9831C27.9448 6.26624 21.7323 0.0537109 14.0154 0.0537109C6.29846 0.0537109 0.0859375 6.26624 0.0859375 13.9831C0.0859375 21.7001 6.29846 27.9126 14.0154 27.9126Z" fill="#36354C"/>
  </g>
  <defs>
    <clipPath id="clip0_3581_68445">
      <rect width="28" height="28" fill="white"/>
    </clipPath>
  </defs>
</svg>