<svg xmlns="http://www.w3.org/2000/svg" width="34" height="32" viewBox="0 0 34 32" fill="none">
  <path fillRule="evenodd" clipRule="evenodd" d="M2.78516 21.4004H8.85791V23.2013H6.96636V28.5043H4.67671V23.2013H2.78516V21.4004ZM16.7229 21.4004H22.7957V23.2013H20.9043V28.5043H18.6145V23.2013H16.7229V21.4004ZM8.65886 28.5043L11.2473 21.4004H14.1345L17.0214 28.5043H14.4331L12.8402 23.9017L11.1477 28.5043H8.65886ZM22.5965 28.5043L25.185 21.4004H28.0724L30.9591 28.5043H28.3707L26.778 23.9017L25.0855 28.5043H22.5965ZM16.5966 3.08252C21.2091 3.08252 25.1901 5.01192 26.94 7.76309C24.3056 7.04193 21.2561 6.48645 18.0889 6.59237C17.5837 6.6093 17.1928 6.74062 17.1928 7.21724V18.6897C16.804 18.704 16.4149 18.7042 16.0262 18.6906V7.21724C16.0262 6.74045 15.6352 6.6093 15.13 6.59237C11.9506 6.48595 8.88962 7.04625 6.24802 7.77156C7.99498 5.01574 11.9795 3.08252 16.5966 3.08252ZM27.7047 9.48365C27.827 9.94292 27.8892 10.4162 27.8895 10.8914C27.8895 14.2778 24.7444 17.1719 20.3716 18.25L19.0815 9.59438C18.9767 8.89048 18.9832 8.41154 19.5822 8.39327C22.9425 8.29084 24.9145 8.79021 27.7047 9.48365ZM12.8465 18.2559C8.46064 17.1827 5.30391 14.2842 5.30391 10.8916C5.30391 10.4137 5.36682 9.94533 5.48702 9.49062C8.29147 8.7932 10.2654 8.29084 13.6368 8.39361C14.2359 8.41187 14.2422 8.89082 14.1375 9.59471L12.8465 18.2559Z" fill="#36354C"/>
</svg>
